{"glyphs":{"0":{"ha":603,"x_min":0,"x_max":0,"o":"m 301 986 b 64 740 154 986 64 893 l 64 232 b 301 -14 64 79 154 -14 b 539 232 449 -14 539 79 l 539 740 b 301 986 539 893 449 986 z m 301 850 b 392 739 360 850 392 811 l 392 233 b 301 122 392 161 360 122 b 211 233 243 122 211 161 l 211 739 b 301 850 211 811 243 850 z "},"1":{"ha":468,"x_min":0,"x_max":0,"o":"m 381 0 l 381 972 l 278 972 b 31 850 247 899 149 858 l 31 747 l 233 747 l 233 0 z "},"2":{"ha":529,"x_min":0,"x_max":0,"o":"m 261 986 b 35 760 119 986 35 903 l 35 693 l 176 686 l 176 735 b 258 850 176 817 204 850 b 340 753 313 850 340 817 l 340 733 b 253 476 340 654 321 586 l 35 125 l 35 0 l 488 0 l 488 139 l 203 139 l 367 401 b 488 728 460 551 488 633 l 488 764 b 261 986 488 904 403 986 z "},"3":{"ha":556,"x_min":0,"x_max":0,"o":"m 272 986 b 42 753 126 986 42 900 l 42 693 l 183 686 l 183 735 b 268 850 183 814 211 850 b 356 742 325 850 356 811 l 356 689 b 258 571 356 607 326 571 l 197 571 l 197 435 l 258 435 b 365 310 333 435 365 396 l 365 235 b 272 122 365 163 335 122 b 182 238 211 122 182 158 l 182 286 l 40 279 l 40 219 b 276 -14 40 72 126 -14 b 513 225 426 -14 513 75 l 513 299 b 396 507 513 406 474 475 l 396 510 b 503 692 468 539 503 600 l 503 747 b 272 986 503 897 418 986 z "},"4":{"ha":571,"x_min":0,"x_max":0,"o":"m 475 342 l 475 972 l 329 972 l 19 328 l 19 206 l 328 206 l 328 0 l 475 0 l 475 206 l 543 206 l 543 342 z m 325 689 l 328 689 l 328 342 l 164 342 z "},"5":{"ha":556,"x_min":0,"x_max":0,"o":"m 479 972 l 82 972 l 51 415 l 188 410 l 189 429 b 276 511 194 482 226 511 b 368 399 336 511 368 471 l 368 235 b 276 122 368 163 338 122 b 188 238 218 122 188 158 l 188 264 l 46 257 l 46 219 b 281 -14 46 72 133 -14 b 515 225 428 -14 515 75 l 515 408 b 317 647 515 561 439 647 b 201 604 258 647 222 628 l 199 604 l 211 833 l 479 833 z "},"6":{"ha":588,"x_min":0,"x_max":0,"o":"m 297 986 b 64 751 151 986 64 899 l 64 232 b 299 -14 64 79 154 -14 b 536 232 446 -14 536 79 l 536 364 b 342 601 536 524 450 601 b 214 549 281 601 238 576 l 211 549 l 211 750 b 300 850 211 817 242 850 b 386 742 358 850 386 815 l 386 707 l 528 714 l 528 757 b 297 986 528 904 443 986 z m 300 465 b 389 354 357 465 389 426 l 389 233 b 300 122 389 161 357 122 b 211 233 243 122 211 161 l 211 354 b 300 465 211 426 243 465 z "},"7":{"ha":486,"x_min":0,"x_max":0,"o":"m 474 842 l 474 972 l 18 972 l 18 828 l 324 828 l 50 0 l 201 0 z "},"8":{"ha":572,"x_min":0,"x_max":0,"o":"m 286 986 b 51 747 139 986 51 897 l 51 692 b 157 510 51 600 86 539 l 157 507 b 43 299 81 475 43 404 l 43 225 b 286 -14 43 75 133 -14 b 529 225 439 -14 529 75 l 529 299 b 415 507 529 404 492 475 l 415 510 b 521 692 486 539 521 600 l 521 747 b 286 986 521 897 433 986 z m 286 850 b 374 746 342 850 374 813 l 374 675 b 286 571 374 608 342 571 b 199 675 231 571 199 608 l 199 746 b 286 850 199 813 231 850 z m 286 435 b 382 322 346 435 382 394 l 382 235 b 286 122 382 163 346 122 b 190 235 226 122 190 163 l 190 322 b 286 435 190 394 226 435 z "},"9":{"ha":588,"x_min":0,"x_max":0,"o":"m 290 -14 b 524 221 436 -14 524 74 l 524 740 b 289 986 524 893 433 986 b 51 740 142 986 51 893 l 51 608 b 246 371 51 449 138 371 b 374 424 307 371 350 396 l 376 424 l 376 222 b 288 122 376 156 346 122 b 201 231 229 122 201 157 l 201 265 l 60 258 l 60 215 b 290 -14 60 68 144 -14 z m 288 507 b 199 618 231 507 199 546 l 199 739 b 288 850 199 811 231 850 b 376 739 344 850 376 811 l 376 618 b 288 507 376 546 344 507 z "},"A":{"ha":576,"x_min":0,"x_max":0,"o":"m 550 0 l 382 972 l 194 972 l 26 0 l 174 0 l 206 221 l 368 221 l 400 0 z m 285 764 l 289 764 l 349 354 l 225 354 z "},"Á":{"ha":576,"x_min":0,"x_max":0,"o":"m 326 1028 l 447 1181 l 299 1181 l 218 1028 z m 550 0 l 382 972 l 194 972 l 26 0 l 174 0 l 206 221 l 368 221 l 400 0 z m 285 764 l 289 764 l 349 354 l 225 354 z "},"Ă":{"ha":576,"x_min":0,"x_max":0,"o":"m 354 1181 b 289 1124 354 1146 329 1124 b 224 1181 249 1124 224 1146 l 129 1181 b 289 1021 129 1079 188 1021 b 449 1181 390 1021 449 1079 z m 550 0 l 382 972 l 194 972 l 26 0 l 174 0 l 206 221 l 368 221 l 400 0 z m 285 764 l 289 764 l 349 354 l 225 354 z "},"Â":{"ha":576,"x_min":0,"x_max":0,"o":"m 458 1028 l 364 1181 l 214 1181 l 119 1028 l 228 1028 l 289 1106 l 350 1028 z m 550 0 l 382 972 l 194 972 l 26 0 l 174 0 l 206 221 l 368 221 l 400 0 z m 285 764 l 289 764 l 349 354 l 225 354 z "},"Ä":{"ha":576,"x_min":0,"x_max":0,"o":"m 253 1038 l 253 1171 l 122 1171 l 122 1038 z m 456 1038 l 456 1171 l 325 1171 l 325 1038 z m 550 0 l 382 972 l 194 972 l 26 0 l 174 0 l 206 221 l 368 221 l 400 0 z m 285 764 l 289 764 l 349 354 l 225 354 z "},"À":{"ha":576,"x_min":0,"x_max":0,"o":"m 360 1028 l 279 1181 l 131 1181 l 251 1028 z m 550 0 l 382 972 l 194 972 l 26 0 l 174 0 l 206 221 l 368 221 l 400 0 z m 285 764 l 289 764 l 349 354 l 225 354 z "},"Ā":{"ha":576,"x_min":0,"x_max":0,"o":"m 422 1060 l 422 1149 l 156 1149 l 156 1060 z m 550 0 l 382 972 l 194 972 l 26 0 l 174 0 l 206 221 l 368 221 l 400 0 z m 285 764 l 289 764 l 349 354 l 225 354 z "},"Ą":{"ha":576,"x_min":0,"x_max":0,"o":"m 550 0 l 382 972 l 194 972 l 26 0 l 174 0 l 206 221 l 368 221 l 400 0 l 424 0 l 424 -3 b 335 -119 361 -36 335 -75 b 456 -204 335 -175 378 -204 b 550 -182 490 -204 518 -199 l 543 -97 b 493 -112 529 -107 511 -112 b 449 -74 467 -112 449 -100 b 493 0 449 -54 458 -28 z m 285 764 l 289 764 l 349 354 l 225 354 z "},"Å":{"ha":576,"x_min":0,"x_max":0,"o":"m 289 1226 b 183 1119 228 1226 183 1182 b 289 1014 183 1058 228 1014 b 394 1119 350 1014 394 1058 b 289 1226 394 1182 350 1226 z m 289 1163 b 328 1119 313 1163 328 1146 b 289 1078 328 1094 313 1078 b 250 1119 265 1078 250 1094 b 289 1163 250 1146 265 1163 z m 550 0 l 382 972 l 194 972 l 26 0 l 174 0 l 206 221 l 368 221 l 400 0 z m 285 764 l 289 764 l 349 354 l 225 354 z "},"Ã":{"ha":576,"x_min":0,"x_max":0,"o":"m 229 1172 b 121 1090 186 1172 156 1150 l 176 1039 b 232 1078 196 1067 211 1078 b 283 1058 244 1078 256 1074 b 349 1036 313 1042 328 1036 b 457 1118 392 1036 422 1058 l 401 1169 b 346 1131 382 1142 367 1131 b 294 1150 333 1131 322 1135 b 229 1172 265 1167 250 1172 z m 550 0 l 382 972 l 194 972 l 26 0 l 174 0 l 206 221 l 368 221 l 400 0 z m 285 764 l 289 764 l 349 354 l 225 354 z "},"Æ":{"ha":850,"x_min":0,"x_max":0,"o":"m 804 836 l 804 972 l 319 972 l 15 0 l 161 0 l 226 221 l 390 221 l 390 0 l 804 0 l 804 136 l 538 136 l 538 425 l 753 425 l 753 561 l 538 561 l 538 836 z m 388 768 l 390 768 l 390 354 l 267 354 z "},"Ǽ":{"ha":850,"x_min":0,"x_max":0,"o":"m 501 1028 l 622 1181 l 474 1181 l 393 1028 z m 804 836 l 804 972 l 319 972 l 15 0 l 161 0 l 226 221 l 390 221 l 390 0 l 804 0 l 804 136 l 538 136 l 538 425 l 753 425 l 753 561 l 538 561 l 538 836 z m 388 768 l 390 768 l 390 354 l 267 354 z "},"B":{"ha":579,"x_min":0,"x_max":0,"o":"m 79 972 l 79 0 l 296 0 b 540 246 454 0 540 86 l 540 279 b 410 507 540 407 501 479 l 410 510 b 519 708 488 536 519 600 l 519 726 b 285 972 519 886 438 972 z m 226 836 l 279 836 b 372 721 343 836 372 800 l 372 689 b 272 571 372 607 343 571 l 226 571 z m 226 435 l 283 435 b 393 310 361 435 393 396 l 393 256 b 290 136 393 174 361 136 l 226 136 z "},"C":{"ha":565,"x_min":0,"x_max":0,"o":"m 290 986 b 64 753 147 986 64 900 l 64 219 b 290 -14 64 72 147 -14 b 519 219 435 -14 519 72 l 519 336 l 378 343 l 378 235 b 294 122 378 157 349 122 b 211 221 240 122 211 157 l 211 751 b 294 850 211 815 240 850 b 378 738 349 850 378 815 l 378 658 l 519 665 l 519 753 b 290 986 519 900 435 986 z "},"Ć":{"ha":565,"x_min":0,"x_max":0,"o":"m 326 1028 l 447 1181 l 299 1181 l 218 1028 z m 290 986 b 64 753 147 986 64 900 l 64 219 b 290 -14 64 72 147 -14 b 519 219 435 -14 519 72 l 519 336 l 378 343 l 378 235 b 294 122 378 157 349 122 b 211 221 240 122 211 157 l 211 751 b 294 850 211 815 240 850 b 378 738 349 850 378 815 l 378 658 l 519 665 l 519 753 b 290 986 519 900 435 986 z "},"Č":{"ha":565,"x_min":0,"x_max":0,"o":"m 364 1028 l 458 1181 l 350 1181 l 289 1103 l 228 1181 l 119 1181 l 214 1028 z m 290 986 b 64 753 147 986 64 900 l 64 219 b 290 -14 64 72 147 -14 b 519 219 435 -14 519 72 l 519 336 l 378 343 l 378 235 b 294 122 378 157 349 122 b 211 221 240 122 211 157 l 211 751 b 294 850 211 815 240 850 b 378 738 349 850 378 815 l 378 658 l 519 665 l 519 753 b 290 986 519 900 435 986 z "},"Ç":{"ha":565,"x_min":0,"x_max":0,"o":"m 290 986 b 64 753 147 986 64 900 l 64 219 b 258 -12 64 83 135 0 l 258 -74 l 272 -74 b 321 -115 308 -74 321 -85 b 289 -149 321 -137 310 -149 b 257 -115 268 -149 257 -137 l 257 -104 l 154 -110 l 154 -118 b 288 -204 154 -175 200 -204 b 428 -122 383 -204 428 -178 b 325 -49 428 -72 394 -49 l 325 -12 b 519 219 449 1 519 85 l 519 336 l 378 343 l 378 235 b 294 122 378 157 349 122 b 211 221 240 122 211 157 l 211 751 b 294 850 211 815 240 850 b 378 738 349 850 378 815 l 378 658 l 519 665 l 519 753 b 290 986 519 900 435 986 z "},"Ĉ":{"ha":565,"x_min":0,"x_max":0,"o":"m 458 1028 l 364 1181 l 214 1181 l 119 1028 l 228 1028 l 289 1106 l 350 1028 z m 290 986 b 64 753 147 986 64 900 l 64 219 b 290 -14 64 72 147 -14 b 519 219 435 -14 519 72 l 519 336 l 378 343 l 378 235 b 294 122 378 157 349 122 b 211 221 240 122 211 157 l 211 751 b 294 850 211 815 240 850 b 378 738 349 850 378 815 l 378 658 l 519 665 l 519 753 b 290 986 519 900 435 986 z "},"Ċ":{"ha":565,"x_min":0,"x_max":0,"o":"m 360 1032 l 360 1176 l 218 1176 l 218 1032 z m 290 986 b 64 753 147 986 64 900 l 64 219 b 290 -14 64 72 147 -14 b 519 219 435 -14 519 72 l 519 336 l 378 343 l 378 235 b 294 122 378 157 349 122 b 211 221 240 122 211 157 l 211 751 b 294 850 211 815 240 850 b 378 738 349 850 378 815 l 378 658 l 519 665 l 519 753 b 290 986 519 900 435 986 z "},"D":{"ha":599,"x_min":0,"x_max":0,"o":"m 79 972 l 79 0 l 290 0 b 535 246 449 0 535 86 l 535 726 b 290 972 535 886 449 972 z m 226 836 l 285 836 b 388 717 356 836 388 799 l 388 256 b 285 136 388 174 356 136 l 226 136 z "},"Ð":{"ha":608,"x_min":0,"x_max":0,"o":"m 89 972 l 89 553 l 28 553 l 28 417 l 89 417 l 89 0 l 300 0 b 544 246 458 0 544 86 l 544 726 b 300 972 544 886 458 972 z m 236 836 l 294 836 b 397 717 365 836 397 799 l 397 256 b 294 136 397 174 365 136 l 236 136 l 236 417 l 324 417 l 324 553 l 236 553 z "},"Ď":{"ha":599,"x_min":0,"x_max":0,"o":"m 349 1028 l 443 1181 l 335 1181 l 274 1103 l 213 1181 l 104 1181 l 199 1028 z m 79 972 l 79 0 l 290 0 b 535 246 449 0 535 86 l 535 726 b 290 972 535 886 449 972 z m 226 836 l 285 836 b 388 717 356 836 388 799 l 388 256 b 285 136 388 174 356 136 l 226 136 z "},"Đ":{"ha":608,"x_min":0,"x_max":0,"o":"m 89 972 l 89 553 l 28 553 l 28 417 l 89 417 l 89 0 l 300 0 b 544 246 458 0 544 86 l 544 726 b 300 972 544 886 458 972 z m 236 836 l 294 836 b 397 717 365 836 397 799 l 397 256 b 294 136 397 174 365 136 l 236 136 l 236 417 l 324 417 l 324 553 l 236 553 z "},"E":{"ha":539,"x_min":0,"x_max":0,"o":"m 493 836 l 493 972 l 79 972 l 79 0 l 493 0 l 493 136 l 226 136 l 226 425 l 442 425 l 442 561 l 226 561 l 226 836 z "},"É":{"ha":539,"x_min":0,"x_max":0,"o":"m 322 1028 l 443 1181 l 294 1181 l 214 1028 z m 493 836 l 493 972 l 79 972 l 79 0 l 493 0 l 493 136 l 226 136 l 226 425 l 442 425 l 442 561 l 226 561 l 226 836 z "},"Ĕ":{"ha":539,"x_min":0,"x_max":0,"o":"m 350 1181 b 285 1124 350 1146 325 1124 b 219 1181 244 1124 219 1146 l 125 1181 b 285 1021 125 1079 183 1021 b 444 1181 386 1021 444 1079 z m 493 836 l 493 972 l 79 972 l 79 0 l 493 0 l 493 136 l 226 136 l 226 425 l 442 425 l 442 561 l 226 561 l 226 836 z "},"Ě":{"ha":539,"x_min":0,"x_max":0,"o":"m 360 1028 l 454 1181 l 346 1181 l 285 1103 l 224 1181 l 115 1181 l 210 1028 z m 493 836 l 493 972 l 79 972 l 79 0 l 493 0 l 493 136 l 226 136 l 226 425 l 442 425 l 442 561 l 226 561 l 226 836 z "},"Ê":{"ha":539,"x_min":0,"x_max":0,"o":"m 454 1028 l 360 1181 l 210 1181 l 115 1028 l 224 1028 l 285 1106 l 346 1028 z m 493 836 l 493 972 l 79 972 l 79 0 l 493 0 l 493 136 l 226 136 l 226 425 l 442 425 l 442 561 l 226 561 l 226 836 z "},"Ë":{"ha":539,"x_min":0,"x_max":0,"o":"m 249 1038 l 249 1171 l 118 1171 l 118 1038 z m 451 1038 l 451 1171 l 321 1171 l 321 1038 z m 493 836 l 493 972 l 79 972 l 79 0 l 493 0 l 493 136 l 226 136 l 226 425 l 442 425 l 442 561 l 226 561 l 226 836 z "},"Ė":{"ha":539,"x_min":0,"x_max":0,"o":"m 356 1032 l 356 1176 l 214 1176 l 214 1032 z m 493 836 l 493 972 l 79 972 l 79 0 l 493 0 l 493 136 l 226 136 l 226 425 l 442 425 l 442 561 l 226 561 l 226 836 z "},"È":{"ha":539,"x_min":0,"x_max":0,"o":"m 356 1028 l 275 1181 l 126 1181 l 247 1028 z m 493 836 l 493 972 l 79 972 l 79 0 l 493 0 l 493 136 l 226 136 l 226 425 l 442 425 l 442 561 l 226 561 l 226 836 z "},"Ē":{"ha":539,"x_min":0,"x_max":0,"o":"m 418 1060 l 418 1149 l 151 1149 l 151 1060 z m 493 836 l 493 972 l 79 972 l 79 0 l 493 0 l 493 136 l 226 136 l 226 425 l 442 425 l 442 561 l 226 561 l 226 836 z "},"Ę":{"ha":539,"x_min":0,"x_max":0,"o":"m 493 836 l 493 972 l 79 972 l 79 0 l 367 0 l 367 -3 b 278 -119 306 -36 278 -76 b 399 -204 278 -175 321 -204 b 493 -182 433 -204 461 -199 l 486 -97 b 436 -112 472 -107 454 -112 b 392 -74 410 -112 392 -100 b 436 0 392 -54 401 -28 l 493 0 l 493 136 l 226 136 l 226 425 l 442 425 l 442 561 l 226 561 l 226 836 z "},"F":{"ha":504,"x_min":0,"x_max":0,"o":"m 486 836 l 486 972 l 79 972 l 79 0 l 226 0 l 226 425 l 435 425 l 435 561 l 226 561 l 226 836 z "},"G":{"ha":585,"x_min":0,"x_max":0,"o":"m 293 986 b 64 753 147 986 64 900 l 64 219 b 293 -14 64 72 147 -14 b 525 219 440 -14 525 72 l 525 538 l 297 538 l 297 401 l 381 401 l 381 235 b 296 122 381 157 353 122 b 211 221 239 122 211 157 l 211 751 b 297 850 211 815 240 850 b 383 738 354 850 383 815 l 383 679 l 525 686 l 525 753 b 293 986 525 900 440 986 z "},"Ğ":{"ha":585,"x_min":0,"x_max":0,"o":"m 358 1181 b 293 1124 358 1146 333 1124 b 228 1181 253 1124 228 1146 l 133 1181 b 293 1021 133 1079 192 1021 b 453 1181 394 1021 453 1079 z m 293 986 b 64 753 147 986 64 900 l 64 219 b 293 -14 64 72 147 -14 b 525 219 440 -14 525 72 l 525 538 l 297 538 l 297 401 l 381 401 l 381 235 b 296 122 381 157 353 122 b 211 221 239 122 211 157 l 211 751 b 297 850 211 815 240 850 b 383 738 354 850 383 815 l 383 679 l 525 686 l 525 753 b 293 986 525 900 440 986 z "},"Ĝ":{"ha":585,"x_min":0,"x_max":0,"o":"m 463 1028 l 368 1181 l 218 1181 l 124 1028 l 232 1028 l 293 1106 l 354 1028 z m 293 986 b 64 753 147 986 64 900 l 64 219 b 293 -14 64 72 147 -14 b 525 219 440 -14 525 72 l 525 538 l 297 538 l 297 401 l 381 401 l 381 235 b 296 122 381 157 353 122 b 211 221 239 122 211 157 l 211 751 b 297 850 211 815 240 850 b 383 738 354 850 383 815 l 383 679 l 525 686 l 525 753 b 293 986 525 900 440 986 z "},"Ģ":{"ha":585,"x_min":0,"x_max":0,"o":"m 293 986 b 64 753 147 986 64 900 l 64 219 b 293 -14 64 72 147 -14 b 525 219 440 -14 525 72 l 525 538 l 297 538 l 297 401 l 381 401 l 381 235 b 296 122 381 157 353 122 b 211 221 239 122 211 157 l 211 751 b 297 850 211 815 240 850 b 383 738 354 850 383 815 l 383 679 l 525 686 l 525 753 b 293 986 525 900 440 986 z m 364 -171 l 364 -56 l 222 -56 l 222 -183 l 268 -183 l 222 -283 l 292 -283 z "},"Ġ":{"ha":585,"x_min":0,"x_max":0,"o":"m 364 1032 l 364 1176 l 222 1176 l 222 1032 z m 293 986 b 64 753 147 986 64 900 l 64 219 b 293 -14 64 72 147 -14 b 525 219 440 -14 525 72 l 525 538 l 297 538 l 297 401 l 381 401 l 381 235 b 296 122 381 157 353 122 b 211 221 239 122 211 157 l 211 751 b 297 850 211 815 240 850 b 383 738 354 850 383 815 l 383 679 l 525 686 l 525 753 b 293 986 525 900 440 986 z "},"H":{"ha":628,"x_min":0,"x_max":0,"o":"m 549 0 l 549 972 l 401 972 l 401 563 l 226 563 l 226 972 l 79 972 l 79 0 l 226 0 l 226 424 l 401 424 l 401 0 z "},"Ħ":{"ha":642,"x_min":0,"x_max":0,"o":"m 556 835 l 556 972 l 408 972 l 408 835 l 233 835 l 233 972 l 86 972 l 86 835 l 25 835 l 25 707 l 86 707 l 86 0 l 233 0 l 233 424 l 408 424 l 408 0 l 556 0 l 556 707 l 617 707 l 617 835 z m 233 707 l 408 707 l 408 563 l 233 563 z "},"Ĥ":{"ha":628,"x_min":0,"x_max":0,"o":"m 483 1028 l 389 1181 l 239 1181 l 144 1028 l 253 1028 l 314 1106 l 375 1028 z m 549 0 l 549 972 l 401 972 l 401 563 l 226 563 l 226 972 l 79 972 l 79 0 l 226 0 l 226 424 l 401 424 l 401 0 z "},"I":{"ha":306,"x_min":0,"x_max":0,"o":"m 226 0 l 226 972 l 79 972 l 79 0 z "},"Ĳ":{"ha":724,"x_min":0,"x_max":0,"o":"m 226 0 l 226 972 l 79 972 l 79 0 z m 651 972 l 504 972 l 504 231 b 407 122 504 156 475 122 b 335 133 378 122 353 128 l 326 -1 b 425 -14 357 -10 390 -14 b 651 226 578 -14 651 71 z "},"Í":{"ha":306,"x_min":0,"x_max":0,"o":"m 190 1028 l 311 1181 l 163 1181 l 82 1028 z m 226 0 l 226 972 l 79 972 l 79 0 z "},"Ĭ":{"ha":306,"x_min":0,"x_max":0,"o":"m 218 1181 b 153 1124 218 1146 193 1124 b 88 1181 113 1124 88 1146 l -7 1181 b 153 1021 -7 1079 51 1021 b 313 1181 254 1021 313 1079 z m 226 0 l 226 972 l 79 972 l 79 0 z "},"Î":{"ha":306,"x_min":0,"x_max":0,"o":"m 322 1028 l 228 1181 l 78 1181 l -17 1028 l 92 1028 l 153 1106 l 214 1028 z m 226 0 l 226 972 l 79 972 l 79 0 z "},"Ï":{"ha":306,"x_min":0,"x_max":0,"o":"m 117 1038 l 117 1171 l -14 1171 l -14 1038 z m 319 1038 l 319 1171 l 189 1171 l 189 1038 z m 226 0 l 226 972 l 79 972 l 79 0 z "},"İ":{"ha":306,"x_min":0,"x_max":0,"o":"m 224 1032 l 224 1176 l 82 1176 l 82 1032 z m 226 0 l 226 972 l 79 972 l 79 0 z "},"Ì":{"ha":306,"x_min":0,"x_max":0,"o":"m 224 1028 l 143 1181 l -6 1181 l 115 1028 z m 226 0 l 226 972 l 79 972 l 79 0 z "},"Ī":{"ha":306,"x_min":0,"x_max":0,"o":"m 286 1060 l 286 1149 l 19 1149 l 19 1060 z m 226 0 l 226 972 l 79 972 l 79 0 z "},"Į":{"ha":306,"x_min":0,"x_max":0,"o":"m 226 0 l 226 972 l 79 972 l 79 0 l 131 0 l 131 -3 b 42 -119 69 -36 42 -76 b 163 -204 42 -175 85 -204 b 257 -182 197 -204 225 -199 l 250 -97 b 200 -112 236 -107 218 -112 b 156 -74 174 -112 156 -100 b 200 0 156 -54 165 -28 z "},"Ĩ":{"ha":306,"x_min":0,"x_max":0,"o":"m 93 1172 b -15 1090 50 1172 19 1150 l 40 1039 b 96 1078 60 1067 75 1078 b 147 1058 108 1078 119 1074 b 213 1036 176 1042 192 1036 b 321 1118 256 1036 286 1058 l 265 1169 b 210 1131 246 1142 231 1131 b 158 1150 197 1131 186 1135 b 93 1172 129 1167 114 1172 z m 226 0 l 226 972 l 79 972 l 79 0 z "},"J":{"ha":418,"x_min":0,"x_max":0,"o":"m 346 972 l 199 972 l 199 231 b 101 122 199 156 169 122 b 29 133 72 122 47 128 l 21 -1 b 119 -14 51 -10 85 -14 b 346 226 272 -14 346 71 z "},"Ĵ":{"ha":418,"x_min":0,"x_max":0,"o":"m 442 1028 l 347 1181 l 197 1181 l 103 1028 l 211 1028 l 272 1106 l 333 1028 z m 346 972 l 199 972 l 199 231 b 101 122 199 156 169 122 b 29 133 72 122 47 128 l 21 -1 b 119 -14 51 -10 85 -14 b 346 226 272 -14 346 71 z "},"K":{"ha":586,"x_min":0,"x_max":0,"o":"m 374 586 l 574 972 l 419 972 l 215 567 l 213 567 l 213 972 l 65 972 l 65 0 l 213 0 l 213 300 l 276 425 l 421 0 l 578 0 z "},"Ķ":{"ha":586,"x_min":0,"x_max":0,"o":"m 374 586 l 574 972 l 419 972 l 215 567 l 213 567 l 213 972 l 65 972 l 65 0 l 213 0 l 213 300 l 276 425 l 421 0 l 578 0 z m 383 -171 l 383 -56 l 242 -56 l 242 -183 l 288 -183 l 242 -283 l 311 -283 z "},"L":{"ha":488,"x_min":0,"x_max":0,"o":"m 226 139 l 226 972 l 79 972 l 79 0 l 472 0 l 472 139 z "},"Ĺ":{"ha":488,"x_min":0,"x_max":0,"o":"m 190 1028 l 311 1181 l 163 1181 l 82 1028 z m 226 139 l 226 972 l 79 972 l 79 0 l 472 0 l 472 139 z "},"Ľ":{"ha":488,"x_min":0,"x_max":0,"o":"m 226 139 l 226 972 l 79 972 l 79 0 l 472 0 l 472 139 z m 439 857 l 439 972 l 297 972 l 297 844 l 343 844 l 297 744 l 367 744 z "},"Ļ":{"ha":488,"x_min":0,"x_max":0,"o":"m 226 139 l 226 972 l 79 972 l 79 0 l 472 0 l 472 139 z m 349 -171 l 349 -56 l 207 -56 l 207 -183 l 253 -183 l 207 -283 l 276 -283 z "},"Ŀ":{"ha":488,"x_min":0,"x_max":0,"o":"m 226 139 l 226 972 l 79 972 l 79 0 l 472 0 l 472 139 z m 475 442 l 475 597 l 319 597 l 319 442 z "},"Ł":{"ha":496,"x_min":0,"x_max":0,"o":"m 236 593 l 236 972 l 89 972 l 89 488 l 29 444 l 29 306 l 89 349 l 89 0 l 482 0 l 482 139 l 236 139 l 236 454 l 415 583 l 415 722 z "},"M":{"ha":782,"x_min":0,"x_max":0,"o":"m 703 0 l 703 972 l 504 972 l 390 450 l 388 450 l 272 972 l 79 972 l 79 0 l 218 0 l 218 675 l 221 675 l 343 139 l 431 139 l 553 675 l 556 675 l 556 0 z "},"N":{"ha":638,"x_min":0,"x_max":0,"o":"m 558 0 l 558 972 l 419 972 l 419 393 l 417 393 l 243 972 l 79 972 l 79 0 l 218 0 l 218 644 l 221 644 l 414 0 z "},"Ń":{"ha":638,"x_min":0,"x_max":0,"o":"m 357 1028 l 478 1181 l 329 1181 l 249 1028 z m 558 0 l 558 972 l 419 972 l 419 393 l 417 393 l 243 972 l 79 972 l 79 0 l 218 0 l 218 644 l 221 644 l 414 0 z "},"Ň":{"ha":638,"x_min":0,"x_max":0,"o":"m 394 1028 l 489 1181 l 381 1181 l 319 1103 l 258 1181 l 150 1181 l 244 1028 z m 558 0 l 558 972 l 419 972 l 419 393 l 417 393 l 243 972 l 79 972 l 79 0 l 218 0 l 218 644 l 221 644 l 414 0 z "},"Ņ":{"ha":638,"x_min":0,"x_max":0,"o":"m 558 0 l 558 972 l 419 972 l 419 393 l 417 393 l 243 972 l 79 972 l 79 0 l 218 0 l 218 644 l 221 644 l 414 0 z m 390 -171 l 390 -56 l 249 -56 l 249 -183 l 294 -183 l 249 -283 l 318 -283 z "},"Ŋ":{"ha":638,"x_min":0,"x_max":0,"o":"m 558 972 l 419 972 l 419 393 l 417 393 l 243 972 l 79 972 l 79 0 l 218 0 l 218 644 l 221 644 l 411 8 l 411 4 b 314 -104 411 -71 382 -104 b 242 -93 285 -104 260 -99 l 233 -228 b 332 -240 264 -236 297 -240 b 558 0 485 -240 558 -156 z "},"Ñ":{"ha":638,"x_min":0,"x_max":0,"o":"m 260 1172 b 151 1090 217 1172 186 1150 l 207 1039 b 263 1078 226 1067 242 1078 b 314 1058 275 1078 286 1074 b 379 1036 343 1042 358 1036 b 488 1118 422 1036 453 1058 l 432 1169 b 376 1131 413 1142 397 1131 b 325 1150 364 1131 353 1135 b 260 1172 296 1167 281 1172 z m 558 0 l 558 972 l 419 972 l 419 393 l 417 393 l 243 972 l 79 972 l 79 0 l 218 0 l 218 644 l 221 644 l 414 0 z "},"O":{"ha":603,"x_min":0,"x_max":0,"o":"m 301 986 b 64 740 154 986 64 893 l 64 232 b 301 -14 64 79 154 -14 b 539 232 449 -14 539 79 l 539 740 b 301 986 539 893 449 986 z m 301 850 b 392 739 360 850 392 811 l 392 233 b 301 122 392 161 360 122 b 211 233 243 122 211 161 l 211 739 b 301 850 211 811 243 850 z "},"Ó":{"ha":603,"x_min":0,"x_max":0,"o":"m 339 1028 l 460 1181 l 311 1181 l 231 1028 z m 301 986 b 64 740 154 986 64 893 l 64 232 b 301 -14 64 79 154 -14 b 539 232 449 -14 539 79 l 539 740 b 301 986 539 893 449 986 z m 301 850 b 392 739 360 850 392 811 l 392 233 b 301 122 392 161 360 122 b 211 233 243 122 211 161 l 211 739 b 301 850 211 811 243 850 z "},"Ŏ":{"ha":603,"x_min":0,"x_max":0,"o":"m 367 1181 b 301 1124 367 1146 342 1124 b 236 1181 261 1124 236 1146 l 142 1181 b 301 1021 142 1079 200 1021 b 461 1181 403 1021 461 1079 z m 301 986 b 64 740 154 986 64 893 l 64 232 b 301 -14 64 79 154 -14 b 539 232 449 -14 539 79 l 539 740 b 301 986 539 893 449 986 z m 301 850 b 392 739 360 850 392 811 l 392 233 b 301 122 392 161 360 122 b 211 233 243 122 211 161 l 211 739 b 301 850 211 811 243 850 z "},"Ô":{"ha":603,"x_min":0,"x_max":0,"o":"m 471 1028 l 376 1181 l 226 1181 l 132 1028 l 240 1028 l 301 1106 l 363 1028 z m 301 986 b 64 740 154 986 64 893 l 64 232 b 301 -14 64 79 154 -14 b 539 232 449 -14 539 79 l 539 740 b 301 986 539 893 449 986 z m 301 850 b 392 739 360 850 392 811 l 392 233 b 301 122 392 161 360 122 b 211 233 243 122 211 161 l 211 739 b 301 850 211 811 243 850 z "},"Ö":{"ha":603,"x_min":0,"x_max":0,"o":"m 265 1038 l 265 1171 l 135 1171 l 135 1038 z m 468 1038 l 468 1171 l 338 1171 l 338 1038 z m 301 986 b 64 740 154 986 64 893 l 64 232 b 301 -14 64 79 154 -14 b 539 232 449 -14 539 79 l 539 740 b 301 986 539 893 449 986 z m 301 850 b 392 739 360 850 392 811 l 392 233 b 301 122 392 161 360 122 b 211 233 243 122 211 161 l 211 739 b 301 850 211 811 243 850 z "},"Ò":{"ha":603,"x_min":0,"x_max":0,"o":"m 372 1028 l 292 1181 l 143 1181 l 264 1028 z m 301 986 b 64 740 154 986 64 893 l 64 232 b 301 -14 64 79 154 -14 b 539 232 449 -14 539 79 l 539 740 b 301 986 539 893 449 986 z m 301 850 b 392 739 360 850 392 811 l 392 233 b 301 122 392 161 360 122 b 211 233 243 122 211 161 l 211 739 b 301 850 211 811 243 850 z "},"Ő":{"ha":603,"x_min":0,"x_max":0,"o":"m 236 1028 l 357 1181 l 219 1181 l 139 1028 z m 431 1028 l 551 1181 l 414 1181 l 333 1028 z m 301 986 b 64 740 154 986 64 893 l 64 232 b 301 -14 64 79 154 -14 b 539 232 449 -14 539 79 l 539 740 b 301 986 539 893 449 986 z m 301 850 b 392 739 360 850 392 811 l 392 233 b 301 122 392 161 360 122 b 211 233 243 122 211 161 l 211 739 b 301 850 211 811 243 850 z "},"Ō":{"ha":603,"x_min":0,"x_max":0,"o":"m 435 1060 l 435 1149 l 168 1149 l 168 1060 z m 301 986 b 64 740 154 986 64 893 l 64 232 b 301 -14 64 79 154 -14 b 539 232 449 -14 539 79 l 539 740 b 301 986 539 893 449 986 z m 301 850 b 392 739 360 850 392 811 l 392 233 b 301 122 392 161 360 122 b 211 233 243 122 211 161 l 211 739 b 301 850 211 811 243 850 z "},"Ø":{"ha":603,"x_min":0,"x_max":0,"o":"m 546 949 l 454 986 l 439 950 b 301 986 403 974 356 986 b 64 740 154 986 64 893 l 64 232 b 90 104 64 183 74 140 l 57 24 l 149 -14 l 164 22 b 301 -14 200 -1 247 -14 b 539 232 449 -14 539 79 l 539 740 b 513 868 539 789 529 832 z m 301 850 b 379 804 339 850 365 835 l 213 400 l 211 400 l 211 739 b 301 850 211 811 243 850 z m 390 572 l 392 572 l 392 233 b 301 122 392 161 360 122 b 224 168 264 122 238 138 z "},"Ǿ":{"ha":603,"x_min":0,"x_max":0,"o":"m 339 1028 l 460 1181 l 311 1181 l 231 1028 z m 546 949 l 454 986 l 439 950 b 301 986 403 974 356 986 b 64 740 154 986 64 893 l 64 232 b 90 104 64 183 74 140 l 57 24 l 149 -14 l 164 22 b 301 -14 200 -1 247 -14 b 539 232 449 -14 539 79 l 539 740 b 513 868 539 789 529 832 z m 301 850 b 379 804 339 850 365 835 l 213 400 l 211 400 l 211 739 b 301 850 211 811 243 850 z m 390 572 l 392 572 l 392 233 b 301 122 392 161 360 122 b 224 168 264 122 238 138 z "},"Õ":{"ha":603,"x_min":0,"x_max":0,"o":"m 242 1172 b 133 1090 199 1172 168 1150 l 189 1039 b 244 1078 208 1067 224 1078 b 296 1058 257 1078 268 1074 b 361 1036 325 1042 340 1036 b 469 1118 404 1036 435 1058 l 414 1169 b 358 1131 394 1142 379 1131 b 307 1150 346 1131 335 1135 b 242 1172 278 1167 263 1172 z m 301 986 b 64 740 154 986 64 893 l 64 232 b 301 -14 64 79 154 -14 b 539 232 449 -14 539 79 l 539 740 b 301 986 539 893 449 986 z m 301 850 b 392 739 360 850 392 811 l 392 233 b 301 122 392 161 360 122 b 211 233 243 122 211 161 l 211 739 b 301 850 211 811 243 850 z "},"Œ":{"ha":833,"x_min":0,"x_max":0,"o":"m 786 836 l 786 972 l 308 972 b 64 726 150 972 64 886 l 64 246 b 308 0 64 86 150 0 l 786 0 l 786 136 l 519 136 l 519 425 l 735 425 l 735 561 l 519 561 l 519 836 z m 372 836 l 372 136 l 314 136 b 211 256 243 136 211 174 l 211 717 b 314 836 211 799 243 836 z "},"P":{"ha":565,"x_min":0,"x_max":0,"o":"m 79 972 l 79 0 l 226 0 l 226 403 l 292 403 b 536 649 450 403 536 489 l 536 726 b 292 972 536 886 450 972 z m 226 836 l 286 836 b 389 717 357 836 389 799 l 389 658 b 286 539 389 576 357 539 l 226 539 z "},"Þ":{"ha":565,"x_min":0,"x_max":0,"o":"m 226 833 l 226 972 l 79 972 l 79 0 l 226 0 l 226 264 l 292 264 b 536 510 450 264 536 350 l 536 588 b 292 833 536 747 450 833 z m 226 697 l 286 697 b 389 578 357 697 389 660 l 389 519 b 286 400 389 438 357 400 l 226 400 z "},"Q":{"ha":603,"x_min":0,"x_max":0,"o":"m 303 986 b 65 740 156 986 65 893 l 65 232 b 303 -14 65 79 156 -14 b 399 1 338 -14 371 -8 b 561 -79 433 -56 489 -79 l 575 57 b 500 81 543 57 517 63 b 540 232 526 121 540 172 l 540 740 b 303 986 540 893 450 986 z m 303 850 b 393 739 361 850 393 811 l 393 233 b 303 122 393 161 361 122 b 213 233 244 122 213 161 l 213 739 b 303 850 213 811 244 850 z "},"R":{"ha":581,"x_min":0,"x_max":0,"o":"m 397 0 l 553 0 l 418 443 b 522 657 486 482 522 554 l 522 726 b 278 972 522 886 436 972 l 65 972 l 65 0 l 213 0 l 213 411 l 281 411 z m 213 836 l 272 836 b 375 717 343 836 375 799 l 375 667 b 272 547 375 585 343 547 l 213 547 z "},"Ŕ":{"ha":581,"x_min":0,"x_max":0,"o":"m 299 1028 l 419 1181 l 271 1181 l 190 1028 z m 397 0 l 553 0 l 418 443 b 522 657 486 482 522 554 l 522 726 b 278 972 522 886 436 972 l 65 972 l 65 0 l 213 0 l 213 411 l 281 411 z m 213 836 l 272 836 b 375 717 343 836 375 799 l 375 667 b 272 547 375 585 343 547 l 213 547 z "},"Ř":{"ha":581,"x_min":0,"x_max":0,"o":"m 336 1028 l 431 1181 l 322 1181 l 261 1103 l 200 1181 l 92 1181 l 186 1028 z m 397 0 l 553 0 l 418 443 b 522 657 486 482 522 554 l 522 726 b 278 972 522 886 436 972 l 65 972 l 65 0 l 213 0 l 213 411 l 281 411 z m 213 836 l 272 836 b 375 717 343 836 375 799 l 375 667 b 272 547 375 585 343 547 l 213 547 z "},"Ŗ":{"ha":581,"x_min":0,"x_max":0,"o":"m 397 0 l 553 0 l 418 443 b 522 657 486 482 522 554 l 522 726 b 278 972 522 886 436 972 l 65 972 l 65 0 l 213 0 l 213 411 l 281 411 z m 213 836 l 272 836 b 375 717 343 836 375 799 l 375 667 b 272 547 375 585 343 547 l 213 547 z m 372 -171 l 372 -56 l 231 -56 l 231 -183 l 276 -183 l 231 -283 l 300 -283 z "},"S":{"ha":497,"x_min":0,"x_max":0,"o":"m 251 986 b 32 768 111 986 32 907 l 32 747 b 213 439 32 633 78 553 b 340 246 311 356 340 307 l 340 214 b 257 122 340 153 313 122 b 174 214 201 122 174 153 l 174 283 l 32 269 l 32 204 b 260 -14 32 65 114 -14 b 488 204 406 -14 488 65 l 488 253 b 303 564 488 369 438 450 b 179 753 204 647 179 696 l 179 765 b 254 850 179 821 206 850 b 329 765 303 850 329 821 l 329 729 l 471 743 l 471 768 b 251 986 471 907 392 986 z "},"Ś":{"ha":497,"x_min":0,"x_max":0,"o":"m 292 1028 l 413 1181 l 264 1181 l 183 1028 z m 251 986 b 32 768 111 986 32 907 l 32 747 b 213 439 32 633 78 553 b 340 246 311 356 340 307 l 340 214 b 257 122 340 153 313 122 b 174 214 201 122 174 153 l 174 283 l 32 269 l 32 204 b 260 -14 32 65 114 -14 b 488 204 406 -14 488 65 l 488 253 b 303 564 488 369 438 450 b 179 753 204 647 179 696 l 179 765 b 254 850 179 821 206 850 b 329 765 303 850 329 821 l 329 729 l 471 743 l 471 768 b 251 986 471 907 392 986 z "},"Š":{"ha":497,"x_min":0,"x_max":0,"o":"m 329 1028 l 424 1181 l 315 1181 l 254 1103 l 193 1181 l 85 1181 l 179 1028 z m 251 986 b 32 768 111 986 32 907 l 32 747 b 213 439 32 633 78 553 b 340 246 311 356 340 307 l 340 214 b 257 122 340 153 313 122 b 174 214 201 122 174 153 l 174 283 l 32 269 l 32 204 b 260 -14 32 65 114 -14 b 488 204 406 -14 488 65 l 488 253 b 303 564 488 369 438 450 b 179 753 204 647 179 696 l 179 765 b 254 850 179 821 206 850 b 329 765 303 850 329 821 l 329 729 l 471 743 l 471 768 b 251 986 471 907 392 986 z "},"Ş":{"ha":496,"x_min":0,"x_max":0,"o":"m 251 986 b 32 764 115 986 32 907 l 32 742 b 210 439 32 636 78 558 b 336 249 307 351 336 310 l 336 218 b 257 122 336 149 301 122 b 172 215 204 122 172 150 l 172 286 l 31 272 l 31 203 b 221 -12 31 74 106 0 l 222 -74 l 236 -74 b 285 -115 272 -74 285 -85 b 253 -149 285 -137 274 -149 b 221 -115 232 -149 221 -137 l 221 -104 l 118 -110 l 118 -118 b 251 -204 118 -175 164 -204 b 392 -122 347 -204 392 -178 b 289 -49 392 -72 358 -49 l 289 -12 b 483 208 407 -1 483 76 l 483 254 b 306 564 483 367 438 444 b 179 747 208 651 179 693 l 179 768 b 253 850 179 824 210 850 b 329 757 304 850 329 824 l 329 726 l 471 740 l 471 769 b 251 986 471 913 388 986 z "},"Ŝ":{"ha":497,"x_min":0,"x_max":0,"o":"m 424 1028 l 329 1181 l 179 1181 l 85 1028 l 193 1028 l 254 1106 l 315 1028 z m 251 986 b 32 768 111 986 32 907 l 32 747 b 213 439 32 633 78 553 b 340 246 311 356 340 307 l 340 214 b 257 122 340 153 313 122 b 174 214 201 122 174 153 l 174 283 l 32 269 l 32 204 b 260 -14 32 65 114 -14 b 488 204 406 -14 488 65 l 488 253 b 303 564 488 369 438 450 b 179 753 204 647 179 696 l 179 765 b 254 850 179 821 206 850 b 329 765 303 850 329 821 l 329 729 l 471 743 l 471 768 b 251 986 471 907 392 986 z "},"Ș":{"ha":497,"x_min":0,"x_max":0,"o":"m 251 986 b 32 768 111 986 32 907 l 32 747 b 213 439 32 633 78 553 b 340 246 311 356 340 307 l 340 214 b 257 122 340 153 313 122 b 174 214 201 122 174 153 l 174 283 l 32 269 l 32 204 b 260 -14 32 65 114 -14 b 488 204 406 -14 488 65 l 488 253 b 303 564 488 369 438 450 b 179 753 204 647 179 696 l 179 765 b 254 850 179 821 206 850 b 329 765 303 850 329 821 l 329 729 l 471 743 l 471 768 b 251 986 471 907 392 986 z m 325 -171 l 325 -56 l 183 -56 l 183 -183 l 229 -183 l 183 -283 l 253 -283 z "},"T":{"ha":489,"x_min":0,"x_max":0,"o":"m 475 833 l 475 972 l 14 972 l 14 833 l 171 833 l 171 0 l 318 0 l 318 833 z "},"Ŧ":{"ha":489,"x_min":0,"x_max":0,"o":"m 475 833 l 475 972 l 14 972 l 14 833 l 171 833 l 171 549 l 67 549 l 67 421 l 171 421 l 171 0 l 318 0 l 318 421 l 422 421 l 422 549 l 318 549 l 318 833 z "},"Ť":{"ha":489,"x_min":0,"x_max":0,"o":"m 319 1028 l 414 1181 l 306 1181 l 244 1103 l 183 1181 l 75 1181 l 169 1028 z m 475 833 l 475 972 l 14 972 l 14 833 l 171 833 l 171 0 l 318 0 l 318 833 z "},"Ţ":{"ha":489,"x_min":0,"x_max":0,"o":"m 475 833 l 475 972 l 14 972 l 14 833 l 171 833 l 171 0 l 213 0 l 213 -74 l 226 -74 b 275 -115 263 -74 275 -85 b 243 -149 275 -137 264 -149 b 211 -115 222 -149 211 -137 l 211 -104 l 108 -110 l 108 -118 b 242 -204 108 -175 154 -204 b 382 -122 338 -204 382 -178 b 279 -49 382 -72 349 -49 l 279 0 l 318 0 l 318 833 z "},"Ț":{"ha":489,"x_min":0,"x_max":0,"o":"m 475 833 l 475 972 l 14 972 l 14 833 l 171 833 l 171 0 l 318 0 l 318 833 z m 315 -171 l 315 -56 l 174 -56 l 174 -183 l 219 -183 l 174 -283 l 243 -283 z "},"U":{"ha":597,"x_min":0,"x_max":0,"o":"m 526 972 l 379 972 l 379 222 b 296 125 379 151 347 125 b 213 222 244 125 213 151 l 213 972 l 71 972 l 71 218 b 297 -14 71 65 158 -14 b 526 218 439 -14 526 65 z "},"Ú":{"ha":597,"x_min":0,"x_max":0,"o":"m 336 1028 l 457 1181 l 308 1181 l 228 1028 z m 526 972 l 379 972 l 379 222 b 296 125 379 151 347 125 b 213 222 244 125 213 151 l 213 972 l 71 972 l 71 218 b 297 -14 71 65 158 -14 b 526 218 439 -14 526 65 z "},"Ŭ":{"ha":597,"x_min":0,"x_max":0,"o":"m 364 1181 b 299 1124 364 1146 339 1124 b 233 1181 258 1124 233 1146 l 139 1181 b 299 1021 139 1079 197 1021 b 458 1181 400 1021 458 1079 z m 526 972 l 379 972 l 379 222 b 296 125 379 151 347 125 b 213 222 244 125 213 151 l 213 972 l 71 972 l 71 218 b 297 -14 71 65 158 -14 b 526 218 439 -14 526 65 z "},"Û":{"ha":597,"x_min":0,"x_max":0,"o":"m 468 1028 l 374 1181 l 224 1181 l 129 1028 l 238 1028 l 299 1106 l 360 1028 z m 526 972 l 379 972 l 379 222 b 296 125 379 151 347 125 b 213 222 244 125 213 151 l 213 972 l 71 972 l 71 218 b 297 -14 71 65 158 -14 b 526 218 439 -14 526 65 z "},"Ü":{"ha":597,"x_min":0,"x_max":0,"o":"m 263 1038 l 263 1171 l 132 1171 l 132 1038 z m 465 1038 l 465 1171 l 335 1171 l 335 1038 z m 526 972 l 379 972 l 379 222 b 296 125 379 151 347 125 b 213 222 244 125 213 151 l 213 972 l 71 972 l 71 218 b 297 -14 71 65 158 -14 b 526 218 439 -14 526 65 z "},"Ù":{"ha":597,"x_min":0,"x_max":0,"o":"m 369 1028 l 289 1181 l 140 1181 l 261 1028 z m 526 972 l 379 972 l 379 222 b 296 125 379 151 347 125 b 213 222 244 125 213 151 l 213 972 l 71 972 l 71 218 b 297 -14 71 65 158 -14 b 526 218 439 -14 526 65 z "},"Ű":{"ha":597,"x_min":0,"x_max":0,"o":"m 233 1028 l 354 1181 l 217 1181 l 136 1028 z m 428 1028 l 549 1181 l 411 1181 l 331 1028 z m 526 972 l 379 972 l 379 222 b 296 125 379 151 347 125 b 213 222 244 125 213 151 l 213 972 l 71 972 l 71 218 b 297 -14 71 65 158 -14 b 526 218 439 -14 526 65 z "},"Ū":{"ha":597,"x_min":0,"x_max":0,"o":"m 432 1060 l 432 1149 l 165 1149 l 165 1060 z m 526 972 l 379 972 l 379 222 b 296 125 379 151 347 125 b 213 222 244 125 213 151 l 213 972 l 71 972 l 71 218 b 297 -14 71 65 158 -14 b 526 218 439 -14 526 65 z "},"Ų":{"ha":597,"x_min":0,"x_max":0,"o":"m 526 972 l 379 972 l 379 222 b 296 125 379 151 347 125 b 213 222 244 125 213 151 l 213 972 l 71 972 l 71 218 b 297 -14 71 65 158 -14 l 306 -14 l 306 -17 b 239 -119 260 -47 239 -82 b 360 -204 239 -175 282 -204 b 454 -182 394 -204 422 -199 l 447 -97 b 397 -112 433 -107 415 -112 b 353 -74 371 -112 353 -100 b 403 4 353 -53 364 -25 b 526 218 481 36 526 108 z "},"Ů":{"ha":597,"x_min":0,"x_max":0,"o":"m 299 1226 b 193 1119 238 1226 193 1182 b 299 1014 193 1058 238 1014 b 404 1119 360 1014 404 1058 b 299 1226 404 1182 360 1226 z m 299 1163 b 338 1119 322 1163 338 1146 b 299 1078 338 1094 322 1078 b 260 1119 275 1078 260 1094 b 299 1163 260 1146 275 1163 z m 526 972 l 379 972 l 379 222 b 296 125 379 151 347 125 b 213 222 244 125 213 151 l 213 972 l 71 972 l 71 218 b 297 -14 71 65 158 -14 b 526 218 439 -14 526 65 z "},"Ũ":{"ha":597,"x_min":0,"x_max":0,"o":"m 239 1172 b 131 1090 196 1172 165 1150 l 186 1039 b 242 1078 206 1067 221 1078 b 293 1058 254 1078 265 1074 b 358 1036 322 1042 338 1036 b 467 1118 401 1036 432 1058 l 411 1169 b 356 1131 392 1142 376 1131 b 304 1150 343 1131 332 1135 b 239 1172 275 1167 260 1172 z m 526 972 l 379 972 l 379 222 b 296 125 379 151 347 125 b 213 222 244 125 213 151 l 213 972 l 71 972 l 71 218 b 297 -14 71 65 158 -14 b 526 218 439 -14 526 65 z "},"V":{"ha":571,"x_min":0,"x_max":0,"o":"m 381 0 l 544 972 l 397 972 l 289 231 l 286 231 l 176 972 l 26 972 l 190 0 z "},"W":{"ha":824,"x_min":0,"x_max":0,"o":"m 647 0 l 797 972 l 650 972 l 565 328 l 563 328 l 479 972 l 349 972 l 265 328 l 263 328 l 178 972 l 26 972 l 176 0 l 326 0 l 411 579 l 414 579 l 497 0 z "},"Ẃ":{"ha":824,"x_min":0,"x_max":0,"o":"m 450 1028 l 571 1181 l 422 1181 l 342 1028 z m 647 0 l 797 972 l 650 972 l 565 328 l 563 328 l 479 972 l 349 972 l 265 328 l 263 328 l 178 972 l 26 972 l 176 0 l 326 0 l 411 579 l 414 579 l 497 0 z "},"Ŵ":{"ha":824,"x_min":0,"x_max":0,"o":"m 582 1028 l 488 1181 l 338 1181 l 243 1028 l 351 1028 l 413 1106 l 474 1028 z m 647 0 l 797 972 l 650 972 l 565 328 l 563 328 l 479 972 l 349 972 l 265 328 l 263 328 l 178 972 l 26 972 l 176 0 l 326 0 l 411 579 l 414 579 l 497 0 z "},"Ẅ":{"ha":824,"x_min":0,"x_max":0,"o":"m 376 1038 l 376 1171 l 246 1171 l 246 1038 z m 579 1038 l 579 1171 l 449 1171 l 449 1038 z m 647 0 l 797 972 l 650 972 l 565 328 l 563 328 l 479 972 l 349 972 l 265 328 l 263 328 l 178 972 l 26 972 l 176 0 l 326 0 l 411 579 l 414 579 l 497 0 z "},"Ẁ":{"ha":824,"x_min":0,"x_max":0,"o":"m 483 1028 l 403 1181 l 254 1181 l 375 1028 z m 647 0 l 797 972 l 650 972 l 565 328 l 563 328 l 479 972 l 349 972 l 265 328 l 263 328 l 178 972 l 26 972 l 176 0 l 326 0 l 411 579 l 414 579 l 497 0 z "},"X":{"ha":571,"x_min":0,"x_max":0,"o":"m 372 499 l 547 972 l 394 972 l 290 663 l 288 663 l 179 972 l 24 972 l 199 504 l 13 0 l 165 0 l 279 342 l 282 342 l 403 0 l 558 0 z "},"Y":{"ha":522,"x_min":0,"x_max":0,"o":"m 336 439 l 538 972 l 385 972 l 267 628 l 264 628 l 140 972 l -15 972 l 189 440 l 189 0 l 336 0 z "},"Ý":{"ha":522,"x_min":0,"x_max":0,"o":"m 299 1028 l 419 1181 l 271 1181 l 190 1028 z m 336 439 l 538 972 l 385 972 l 267 628 l 264 628 l 140 972 l -15 972 l 189 440 l 189 0 l 336 0 z "},"Ŷ":{"ha":522,"x_min":0,"x_max":0,"o":"m 431 1028 l 336 1181 l 186 1181 l 92 1028 l 200 1028 l 261 1106 l 322 1028 z m 336 439 l 538 972 l 385 972 l 267 628 l 264 628 l 140 972 l -15 972 l 189 440 l 189 0 l 336 0 z "},"Ÿ":{"ha":522,"x_min":0,"x_max":0,"o":"m 225 1038 l 225 1171 l 94 1171 l 94 1038 z m 428 1038 l 428 1171 l 297 1171 l 297 1038 z m 336 439 l 538 972 l 385 972 l 267 628 l 264 628 l 140 972 l -15 972 l 189 440 l 189 0 l 336 0 z "},"Ỳ":{"ha":522,"x_min":0,"x_max":0,"o":"m 332 1028 l 251 1181 l 103 1181 l 224 1028 z m 336 439 l 538 972 l 385 972 l 267 628 l 264 628 l 140 972 l -15 972 l 189 440 l 189 0 l 336 0 z "},"Z":{"ha":486,"x_min":0,"x_max":0,"o":"m 457 850 l 457 972 l 40 972 l 40 836 l 297 836 l 26 122 l 26 0 l 457 0 l 457 136 l 186 136 z "},"Ź":{"ha":486,"x_min":0,"x_max":0,"o":"m 283 1028 l 404 1181 l 256 1181 l 175 1028 z m 457 850 l 457 972 l 40 972 l 40 836 l 297 836 l 26 122 l 26 0 l 457 0 l 457 136 l 186 136 z "},"Ž":{"ha":486,"x_min":0,"x_max":0,"o":"m 321 1028 l 415 1181 l 307 1181 l 246 1103 l 185 1181 l 76 1181 l 171 1028 z m 457 850 l 457 972 l 40 972 l 40 836 l 297 836 l 26 122 l 26 0 l 457 0 l 457 136 l 186 136 z "},"Ż":{"ha":486,"x_min":0,"x_max":0,"o":"m 317 1032 l 317 1176 l 175 1176 l 175 1032 z m 457 850 l 457 972 l 40 972 l 40 836 l 297 836 l 26 122 l 26 0 l 457 0 l 457 136 l 186 136 z "},"a":{"ha":576,"x_min":0,"x_max":0,"o":"m 550 0 l 382 972 l 194 972 l 26 0 l 174 0 l 206 221 l 368 221 l 400 0 z m 285 764 l 289 764 l 349 354 l 225 354 z "},"á":{"ha":576,"x_min":0,"x_max":0,"o":"m 326 1028 l 447 1181 l 299 1181 l 218 1028 z m 550 0 l 382 972 l 194 972 l 26 0 l 174 0 l 206 221 l 368 221 l 400 0 z m 285 764 l 289 764 l 349 354 l 225 354 z "},"ă":{"ha":576,"x_min":0,"x_max":0,"o":"m 354 1181 b 289 1124 354 1146 329 1124 b 224 1181 249 1124 224 1146 l 129 1181 b 289 1021 129 1079 188 1021 b 449 1181 390 1021 449 1079 z m 550 0 l 382 972 l 194 972 l 26 0 l 174 0 l 206 221 l 368 221 l 400 0 z m 285 764 l 289 764 l 349 354 l 225 354 z "},"â":{"ha":576,"x_min":0,"x_max":0,"o":"m 458 1028 l 364 1181 l 214 1181 l 119 1028 l 228 1028 l 289 1106 l 350 1028 z m 550 0 l 382 972 l 194 972 l 26 0 l 174 0 l 206 221 l 368 221 l 400 0 z m 285 764 l 289 764 l 349 354 l 225 354 z "},"ä":{"ha":576,"x_min":0,"x_max":0,"o":"m 253 1038 l 253 1171 l 122 1171 l 122 1038 z m 456 1038 l 456 1171 l 325 1171 l 325 1038 z m 550 0 l 382 972 l 194 972 l 26 0 l 174 0 l 206 221 l 368 221 l 400 0 z m 285 764 l 289 764 l 349 354 l 225 354 z "},"à":{"ha":576,"x_min":0,"x_max":0,"o":"m 360 1028 l 279 1181 l 131 1181 l 251 1028 z m 550 0 l 382 972 l 194 972 l 26 0 l 174 0 l 206 221 l 368 221 l 400 0 z m 285 764 l 289 764 l 349 354 l 225 354 z "},"ā":{"ha":576,"x_min":0,"x_max":0,"o":"m 422 1060 l 422 1149 l 156 1149 l 156 1060 z m 550 0 l 382 972 l 194 972 l 26 0 l 174 0 l 206 221 l 368 221 l 400 0 z m 285 764 l 289 764 l 349 354 l 225 354 z "},"ą":{"ha":576,"x_min":0,"x_max":0,"o":"m 550 0 l 382 972 l 194 972 l 26 0 l 174 0 l 206 221 l 368 221 l 400 0 l 424 0 l 424 -3 b 335 -119 361 -36 335 -75 b 456 -204 335 -175 378 -204 b 550 -182 490 -204 518 -199 l 543 -97 b 493 -112 529 -107 511 -112 b 449 -74 467 -112 449 -100 b 493 0 449 -54 458 -28 z m 285 764 l 289 764 l 349 354 l 225 354 z "},"å":{"ha":576,"x_min":0,"x_max":0,"o":"m 289 1226 b 183 1119 228 1226 183 1182 b 289 1014 183 1058 228 1014 b 394 1119 350 1014 394 1058 b 289 1226 394 1182 350 1226 z m 289 1163 b 328 1119 313 1163 328 1146 b 289 1078 328 1094 313 1078 b 250 1119 265 1078 250 1094 b 289 1163 250 1146 265 1163 z m 550 0 l 382 972 l 194 972 l 26 0 l 174 0 l 206 221 l 368 221 l 400 0 z m 285 764 l 289 764 l 349 354 l 225 354 z "},"ã":{"ha":576,"x_min":0,"x_max":0,"o":"m 229 1172 b 121 1090 186 1172 156 1150 l 176 1039 b 232 1078 196 1067 211 1078 b 283 1058 244 1078 256 1074 b 349 1036 313 1042 328 1036 b 457 1118 392 1036 422 1058 l 401 1169 b 346 1131 382 1142 367 1131 b 294 1150 333 1131 322 1135 b 229 1172 265 1167 250 1172 z m 550 0 l 382 972 l 194 972 l 26 0 l 174 0 l 206 221 l 368 221 l 400 0 z m 285 764 l 289 764 l 349 354 l 225 354 z "},"æ":{"ha":850,"x_min":0,"x_max":0,"o":"m 804 836 l 804 972 l 319 972 l 15 0 l 161 0 l 226 221 l 390 221 l 390 0 l 804 0 l 804 136 l 538 136 l 538 425 l 753 425 l 753 561 l 538 561 l 538 836 z m 388 768 l 390 768 l 390 354 l 267 354 z "},"ǽ":{"ha":850,"x_min":0,"x_max":0,"o":"m 501 1028 l 622 1181 l 474 1181 l 393 1028 z m 804 836 l 804 972 l 319 972 l 15 0 l 161 0 l 226 221 l 390 221 l 390 0 l 804 0 l 804 136 l 538 136 l 538 425 l 753 425 l 753 561 l 538 561 l 538 836 z m 388 768 l 390 768 l 390 354 l 267 354 z "},"b":{"ha":579,"x_min":0,"x_max":0,"o":"m 79 972 l 79 0 l 296 0 b 540 246 454 0 540 86 l 540 279 b 410 507 540 407 501 479 l 410 510 b 519 708 488 536 519 600 l 519 726 b 285 972 519 886 438 972 z m 226 836 l 279 836 b 372 721 343 836 372 800 l 372 689 b 272 571 372 607 343 571 l 226 571 z m 226 435 l 283 435 b 393 310 361 435 393 396 l 393 256 b 290 136 393 174 361 136 l 226 136 z "},"c":{"ha":565,"x_min":0,"x_max":0,"o":"m 290 986 b 64 753 147 986 64 900 l 64 219 b 290 -14 64 72 147 -14 b 519 219 435 -14 519 72 l 519 336 l 378 343 l 378 235 b 294 122 378 157 349 122 b 211 221 240 122 211 157 l 211 751 b 294 850 211 815 240 850 b 378 738 349 850 378 815 l 378 658 l 519 665 l 519 753 b 290 986 519 900 435 986 z "},"ć":{"ha":565,"x_min":0,"x_max":0,"o":"m 326 1028 l 447 1181 l 299 1181 l 218 1028 z m 290 986 b 64 753 147 986 64 900 l 64 219 b 290 -14 64 72 147 -14 b 519 219 435 -14 519 72 l 519 336 l 378 343 l 378 235 b 294 122 378 157 349 122 b 211 221 240 122 211 157 l 211 751 b 294 850 211 815 240 850 b 378 738 349 850 378 815 l 378 658 l 519 665 l 519 753 b 290 986 519 900 435 986 z "},"č":{"ha":565,"x_min":0,"x_max":0,"o":"m 364 1028 l 458 1181 l 350 1181 l 289 1103 l 228 1181 l 119 1181 l 214 1028 z m 290 986 b 64 753 147 986 64 900 l 64 219 b 290 -14 64 72 147 -14 b 519 219 435 -14 519 72 l 519 336 l 378 343 l 378 235 b 294 122 378 157 349 122 b 211 221 240 122 211 157 l 211 751 b 294 850 211 815 240 850 b 378 738 349 850 378 815 l 378 658 l 519 665 l 519 753 b 290 986 519 900 435 986 z "},"ç":{"ha":565,"x_min":0,"x_max":0,"o":"m 290 986 b 64 753 147 986 64 900 l 64 219 b 258 -12 64 83 135 0 l 258 -74 l 272 -74 b 321 -115 308 -74 321 -85 b 289 -149 321 -137 310 -149 b 257 -115 268 -149 257 -137 l 257 -104 l 154 -110 l 154 -118 b 288 -204 154 -175 200 -204 b 428 -122 383 -204 428 -178 b 325 -49 428 -72 394 -49 l 325 -12 b 519 219 449 1 519 85 l 519 336 l 378 343 l 378 235 b 294 122 378 157 349 122 b 211 221 240 122 211 157 l 211 751 b 294 850 211 815 240 850 b 378 738 349 850 378 815 l 378 658 l 519 665 l 519 753 b 290 986 519 900 435 986 z "},"ĉ":{"ha":565,"x_min":0,"x_max":0,"o":"m 458 1028 l 364 1181 l 214 1181 l 119 1028 l 228 1028 l 289 1106 l 350 1028 z m 290 986 b 64 753 147 986 64 900 l 64 219 b 290 -14 64 72 147 -14 b 519 219 435 -14 519 72 l 519 336 l 378 343 l 378 235 b 294 122 378 157 349 122 b 211 221 240 122 211 157 l 211 751 b 294 850 211 815 240 850 b 378 738 349 850 378 815 l 378 658 l 519 665 l 519 753 b 290 986 519 900 435 986 z "},"ċ":{"ha":565,"x_min":0,"x_max":0,"o":"m 360 1032 l 360 1176 l 218 1176 l 218 1032 z m 290 986 b 64 753 147 986 64 900 l 64 219 b 290 -14 64 72 147 -14 b 519 219 435 -14 519 72 l 519 336 l 378 343 l 378 235 b 294 122 378 157 349 122 b 211 221 240 122 211 157 l 211 751 b 294 850 211 815 240 850 b 378 738 349 850 378 815 l 378 658 l 519 665 l 519 753 b 290 986 519 900 435 986 z "},"d":{"ha":599,"x_min":0,"x_max":0,"o":"m 79 972 l 79 0 l 290 0 b 535 246 449 0 535 86 l 535 726 b 290 972 535 886 449 972 z m 226 836 l 285 836 b 388 717 356 836 388 799 l 388 256 b 285 136 388 174 356 136 l 226 136 z "},"ð":{"ha":608,"x_min":0,"x_max":0,"o":"m 89 972 l 89 553 l 28 553 l 28 417 l 89 417 l 89 0 l 300 0 b 544 246 458 0 544 86 l 544 726 b 300 972 544 886 458 972 z m 236 836 l 294 836 b 397 717 365 836 397 799 l 397 256 b 294 136 397 174 365 136 l 236 136 l 236 417 l 324 417 l 324 553 l 236 553 z "},"ď":{"ha":599,"x_min":0,"x_max":0,"o":"m 349 1028 l 443 1181 l 335 1181 l 274 1103 l 213 1181 l 104 1181 l 199 1028 z m 79 972 l 79 0 l 290 0 b 535 246 449 0 535 86 l 535 726 b 290 972 535 886 449 972 z m 226 836 l 285 836 b 388 717 356 836 388 799 l 388 256 b 285 136 388 174 356 136 l 226 136 z "},"đ":{"ha":608,"x_min":0,"x_max":0,"o":"m 89 972 l 89 553 l 28 553 l 28 417 l 89 417 l 89 0 l 300 0 b 544 246 458 0 544 86 l 544 726 b 300 972 544 886 458 972 z m 236 836 l 294 836 b 397 717 365 836 397 799 l 397 256 b 294 136 397 174 365 136 l 236 136 l 236 417 l 324 417 l 324 553 l 236 553 z "},"e":{"ha":539,"x_min":0,"x_max":0,"o":"m 493 836 l 493 972 l 79 972 l 79 0 l 493 0 l 493 136 l 226 136 l 226 425 l 442 425 l 442 561 l 226 561 l 226 836 z "},"é":{"ha":539,"x_min":0,"x_max":0,"o":"m 322 1028 l 443 1181 l 294 1181 l 214 1028 z m 493 836 l 493 972 l 79 972 l 79 0 l 493 0 l 493 136 l 226 136 l 226 425 l 442 425 l 442 561 l 226 561 l 226 836 z "},"ĕ":{"ha":539,"x_min":0,"x_max":0,"o":"m 350 1181 b 285 1124 350 1146 325 1124 b 219 1181 244 1124 219 1146 l 125 1181 b 285 1021 125 1079 183 1021 b 444 1181 386 1021 444 1079 z m 493 836 l 493 972 l 79 972 l 79 0 l 493 0 l 493 136 l 226 136 l 226 425 l 442 425 l 442 561 l 226 561 l 226 836 z "},"ě":{"ha":539,"x_min":0,"x_max":0,"o":"m 360 1028 l 454 1181 l 346 1181 l 285 1103 l 224 1181 l 115 1181 l 210 1028 z m 493 836 l 493 972 l 79 972 l 79 0 l 493 0 l 493 136 l 226 136 l 226 425 l 442 425 l 442 561 l 226 561 l 226 836 z "},"ê":{"ha":539,"x_min":0,"x_max":0,"o":"m 454 1028 l 360 1181 l 210 1181 l 115 1028 l 224 1028 l 285 1106 l 346 1028 z m 493 836 l 493 972 l 79 972 l 79 0 l 493 0 l 493 136 l 226 136 l 226 425 l 442 425 l 442 561 l 226 561 l 226 836 z "},"ë":{"ha":539,"x_min":0,"x_max":0,"o":"m 249 1038 l 249 1171 l 118 1171 l 118 1038 z m 451 1038 l 451 1171 l 321 1171 l 321 1038 z m 493 836 l 493 972 l 79 972 l 79 0 l 493 0 l 493 136 l 226 136 l 226 425 l 442 425 l 442 561 l 226 561 l 226 836 z "},"ė":{"ha":539,"x_min":0,"x_max":0,"o":"m 356 1032 l 356 1176 l 214 1176 l 214 1032 z m 493 836 l 493 972 l 79 972 l 79 0 l 493 0 l 493 136 l 226 136 l 226 425 l 442 425 l 442 561 l 226 561 l 226 836 z "},"è":{"ha":539,"x_min":0,"x_max":0,"o":"m 356 1028 l 275 1181 l 126 1181 l 247 1028 z m 493 836 l 493 972 l 79 972 l 79 0 l 493 0 l 493 136 l 226 136 l 226 425 l 442 425 l 442 561 l 226 561 l 226 836 z "},"ē":{"ha":539,"x_min":0,"x_max":0,"o":"m 418 1060 l 418 1149 l 151 1149 l 151 1060 z m 493 836 l 493 972 l 79 972 l 79 0 l 493 0 l 493 136 l 226 136 l 226 425 l 442 425 l 442 561 l 226 561 l 226 836 z "},"ę":{"ha":539,"x_min":0,"x_max":0,"o":"m 493 836 l 493 972 l 79 972 l 79 0 l 367 0 l 367 -3 b 278 -119 306 -36 278 -76 b 399 -204 278 -175 321 -204 b 493 -182 433 -204 461 -199 l 486 -97 b 436 -112 472 -107 454 -112 b 392 -74 410 -112 392 -100 b 436 0 392 -54 401 -28 l 493 0 l 493 136 l 226 136 l 226 425 l 442 425 l 442 561 l 226 561 l 226 836 z "},"f":{"ha":504,"x_min":0,"x_max":0,"o":"m 486 836 l 486 972 l 79 972 l 79 0 l 226 0 l 226 425 l 435 425 l 435 561 l 226 561 l 226 836 z "},"g":{"ha":585,"x_min":0,"x_max":0,"o":"m 293 986 b 64 753 147 986 64 900 l 64 219 b 293 -14 64 72 147 -14 b 525 219 440 -14 525 72 l 525 538 l 297 538 l 297 401 l 381 401 l 381 235 b 296 122 381 157 353 122 b 211 221 239 122 211 157 l 211 751 b 297 850 211 815 240 850 b 383 738 354 850 383 815 l 383 679 l 525 686 l 525 753 b 293 986 525 900 440 986 z "},"ğ":{"ha":585,"x_min":0,"x_max":0,"o":"m 358 1181 b 293 1124 358 1146 333 1124 b 228 1181 253 1124 228 1146 l 133 1181 b 293 1021 133 1079 192 1021 b 453 1181 394 1021 453 1079 z m 293 986 b 64 753 147 986 64 900 l 64 219 b 293 -14 64 72 147 -14 b 525 219 440 -14 525 72 l 525 538 l 297 538 l 297 401 l 381 401 l 381 235 b 296 122 381 157 353 122 b 211 221 239 122 211 157 l 211 751 b 297 850 211 815 240 850 b 383 738 354 850 383 815 l 383 679 l 525 686 l 525 753 b 293 986 525 900 440 986 z "},"ĝ":{"ha":585,"x_min":0,"x_max":0,"o":"m 463 1028 l 368 1181 l 218 1181 l 124 1028 l 232 1028 l 293 1106 l 354 1028 z m 293 986 b 64 753 147 986 64 900 l 64 219 b 293 -14 64 72 147 -14 b 525 219 440 -14 525 72 l 525 538 l 297 538 l 297 401 l 381 401 l 381 235 b 296 122 381 157 353 122 b 211 221 239 122 211 157 l 211 751 b 297 850 211 815 240 850 b 383 738 354 850 383 815 l 383 679 l 525 686 l 525 753 b 293 986 525 900 440 986 z "},"ģ":{"ha":585,"x_min":0,"x_max":0,"o":"m 293 986 b 64 753 147 986 64 900 l 64 219 b 293 -14 64 72 147 -14 b 525 219 440 -14 525 72 l 525 538 l 297 538 l 297 401 l 381 401 l 381 235 b 296 122 381 157 353 122 b 211 221 239 122 211 157 l 211 751 b 297 850 211 815 240 850 b 383 738 354 850 383 815 l 383 679 l 525 686 l 525 753 b 293 986 525 900 440 986 z m 364 -171 l 364 -56 l 222 -56 l 222 -183 l 268 -183 l 222 -283 l 292 -283 z "},"ġ":{"ha":585,"x_min":0,"x_max":0,"o":"m 364 1032 l 364 1176 l 222 1176 l 222 1032 z m 293 986 b 64 753 147 986 64 900 l 64 219 b 293 -14 64 72 147 -14 b 525 219 440 -14 525 72 l 525 538 l 297 538 l 297 401 l 381 401 l 381 235 b 296 122 381 157 353 122 b 211 221 239 122 211 157 l 211 751 b 297 850 211 815 240 850 b 383 738 354 850 383 815 l 383 679 l 525 686 l 525 753 b 293 986 525 900 440 986 z "},"h":{"ha":628,"x_min":0,"x_max":0,"o":"m 549 0 l 549 972 l 401 972 l 401 563 l 226 563 l 226 972 l 79 972 l 79 0 l 226 0 l 226 424 l 401 424 l 401 0 z "},"ħ":{"ha":642,"x_min":0,"x_max":0,"o":"m 556 835 l 556 972 l 408 972 l 408 835 l 233 835 l 233 972 l 86 972 l 86 835 l 25 835 l 25 707 l 86 707 l 86 0 l 233 0 l 233 424 l 408 424 l 408 0 l 556 0 l 556 707 l 617 707 l 617 835 z m 233 707 l 408 707 l 408 563 l 233 563 z "},"ĥ":{"ha":628,"x_min":0,"x_max":0,"o":"m 483 1028 l 389 1181 l 239 1181 l 144 1028 l 253 1028 l 314 1106 l 375 1028 z m 549 0 l 549 972 l 401 972 l 401 563 l 226 563 l 226 972 l 79 972 l 79 0 l 226 0 l 226 424 l 401 424 l 401 0 z "},"i":{"ha":306,"x_min":0,"x_max":0,"o":"m 226 0 l 226 972 l 79 972 l 79 0 z "},"ı":{"ha":306,"x_min":0,"x_max":0,"o":"m 226 0 l 226 972 l 79 972 l 79 0 z "},"í":{"ha":306,"x_min":0,"x_max":0,"o":"m 190 1028 l 311 1181 l 163 1181 l 82 1028 z m 226 0 l 226 972 l 79 972 l 79 0 z "},"ĭ":{"ha":306,"x_min":0,"x_max":0,"o":"m 218 1181 b 153 1124 218 1146 193 1124 b 88 1181 113 1124 88 1146 l -7 1181 b 153 1021 -7 1079 51 1021 b 313 1181 254 1021 313 1079 z m 226 0 l 226 972 l 79 972 l 79 0 z "},"î":{"ha":306,"x_min":0,"x_max":0,"o":"m 322 1028 l 228 1181 l 78 1181 l -17 1028 l 92 1028 l 153 1106 l 214 1028 z m 226 0 l 226 972 l 79 972 l 79 0 z "},"ï":{"ha":306,"x_min":0,"x_max":0,"o":"m 117 1038 l 117 1171 l -14 1171 l -14 1038 z m 319 1038 l 319 1171 l 189 1171 l 189 1038 z m 226 0 l 226 972 l 79 972 l 79 0 z "},"ì":{"ha":306,"x_min":0,"x_max":0,"o":"m 224 1028 l 143 1181 l -6 1181 l 115 1028 z m 226 0 l 226 972 l 79 972 l 79 0 z "},"ĳ":{"ha":724,"x_min":0,"x_max":0,"o":"m 226 0 l 226 972 l 79 972 l 79 0 z m 651 972 l 504 972 l 504 231 b 407 122 504 156 475 122 b 335 133 378 122 353 128 l 326 -1 b 425 -14 357 -10 390 -14 b 651 226 578 -14 651 71 z "},"ī":{"ha":306,"x_min":0,"x_max":0,"o":"m 286 1060 l 286 1149 l 19 1149 l 19 1060 z m 226 0 l 226 972 l 79 972 l 79 0 z "},"į":{"ha":306,"x_min":0,"x_max":0,"o":"m 226 0 l 226 972 l 79 972 l 79 0 l 131 0 l 131 -3 b 42 -119 69 -36 42 -76 b 163 -204 42 -175 85 -204 b 257 -182 197 -204 225 -199 l 250 -97 b 200 -112 236 -107 218 -112 b 156 -74 174 -112 156 -100 b 200 0 156 -54 165 -28 z "},"ĩ":{"ha":306,"x_min":0,"x_max":0,"o":"m 93 1172 b -15 1090 50 1172 19 1150 l 40 1039 b 96 1078 60 1067 75 1078 b 147 1058 108 1078 119 1074 b 213 1036 176 1042 192 1036 b 321 1118 256 1036 286 1058 l 265 1169 b 210 1131 246 1142 231 1131 b 158 1150 197 1131 186 1135 b 93 1172 129 1167 114 1172 z m 226 0 l 226 972 l 79 972 l 79 0 z "},"j":{"ha":418,"x_min":0,"x_max":0,"o":"m 346 972 l 199 972 l 199 231 b 101 122 199 156 169 122 b 29 133 72 122 47 128 l 21 -1 b 119 -14 51 -10 85 -14 b 346 226 272 -14 346 71 z "},"ȷ":{"ha":418,"x_min":0,"x_max":0,"o":"m 346 972 l 199 972 l 199 231 b 101 122 199 156 169 122 b 29 133 72 122 47 128 l 21 -1 b 119 -14 51 -10 85 -14 b 346 226 272 -14 346 71 z "},"ĵ":{"ha":418,"x_min":0,"x_max":0,"o":"m 442 1028 l 347 1181 l 197 1181 l 103 1028 l 211 1028 l 272 1106 l 333 1028 z m 346 972 l 199 972 l 199 231 b 101 122 199 156 169 122 b 29 133 72 122 47 128 l 21 -1 b 119 -14 51 -10 85 -14 b 346 226 272 -14 346 71 z "},"k":{"ha":586,"x_min":0,"x_max":0,"o":"m 374 586 l 574 972 l 419 972 l 215 567 l 213 567 l 213 972 l 65 972 l 65 0 l 213 0 l 213 300 l 276 425 l 421 0 l 578 0 z "},"ķ":{"ha":586,"x_min":0,"x_max":0,"o":"m 374 586 l 574 972 l 419 972 l 215 567 l 213 567 l 213 972 l 65 972 l 65 0 l 213 0 l 213 300 l 276 425 l 421 0 l 578 0 z m 383 -171 l 383 -56 l 242 -56 l 242 -183 l 288 -183 l 242 -283 l 311 -283 z "},"ĸ":{"ha":586,"x_min":0,"x_max":0,"o":"m 374 586 l 574 972 l 419 972 l 215 567 l 213 567 l 213 972 l 65 972 l 65 0 l 213 0 l 213 300 l 276 425 l 421 0 l 578 0 z "},"l":{"ha":488,"x_min":0,"x_max":0,"o":"m 226 139 l 226 972 l 79 972 l 79 0 l 472 0 l 472 139 z "},"ĺ":{"ha":488,"x_min":0,"x_max":0,"o":"m 190 1028 l 311 1181 l 163 1181 l 82 1028 z m 226 139 l 226 972 l 79 972 l 79 0 l 472 0 l 472 139 z "},"ľ":{"ha":488,"x_min":0,"x_max":0,"o":"m 226 139 l 226 972 l 79 972 l 79 0 l 472 0 l 472 139 z m 439 857 l 439 972 l 297 972 l 297 844 l 343 844 l 297 744 l 367 744 z "},"ļ":{"ha":488,"x_min":0,"x_max":0,"o":"m 226 139 l 226 972 l 79 972 l 79 0 l 472 0 l 472 139 z m 349 -171 l 349 -56 l 207 -56 l 207 -183 l 253 -183 l 207 -283 l 276 -283 z "},"ŀ":{"ha":488,"x_min":0,"x_max":0,"o":"m 226 139 l 226 972 l 79 972 l 79 0 l 472 0 l 472 139 z m 475 442 l 475 597 l 319 597 l 319 442 z "},"ł":{"ha":496,"x_min":0,"x_max":0,"o":"m 236 593 l 236 972 l 89 972 l 89 488 l 29 444 l 29 306 l 89 349 l 89 0 l 482 0 l 482 139 l 236 139 l 236 454 l 415 583 l 415 722 z "},"m":{"ha":782,"x_min":0,"x_max":0,"o":"m 703 0 l 703 972 l 504 972 l 390 450 l 388 450 l 272 972 l 79 972 l 79 0 l 218 0 l 218 675 l 221 675 l 343 139 l 431 139 l 553 675 l 556 675 l 556 0 z "},"n":{"ha":638,"x_min":0,"x_max":0,"o":"m 558 0 l 558 972 l 419 972 l 419 393 l 417 393 l 243 972 l 79 972 l 79 0 l 218 0 l 218 644 l 221 644 l 414 0 z "},"ń":{"ha":638,"x_min":0,"x_max":0,"o":"m 357 1028 l 478 1181 l 329 1181 l 249 1028 z m 558 0 l 558 972 l 419 972 l 419 393 l 417 393 l 243 972 l 79 972 l 79 0 l 218 0 l 218 644 l 221 644 l 414 0 z "},"ň":{"ha":638,"x_min":0,"x_max":0,"o":"m 394 1028 l 489 1181 l 381 1181 l 319 1103 l 258 1181 l 150 1181 l 244 1028 z m 558 0 l 558 972 l 419 972 l 419 393 l 417 393 l 243 972 l 79 972 l 79 0 l 218 0 l 218 644 l 221 644 l 414 0 z "},"ņ":{"ha":638,"x_min":0,"x_max":0,"o":"m 558 0 l 558 972 l 419 972 l 419 393 l 417 393 l 243 972 l 79 972 l 79 0 l 218 0 l 218 644 l 221 644 l 414 0 z m 390 -171 l 390 -56 l 249 -56 l 249 -183 l 294 -183 l 249 -283 l 318 -283 z "},"ŋ":{"ha":638,"x_min":0,"x_max":0,"o":"m 558 972 l 419 972 l 419 393 l 417 393 l 243 972 l 79 972 l 79 0 l 218 0 l 218 644 l 221 644 l 411 8 l 411 4 b 314 -104 411 -71 382 -104 b 242 -93 285 -104 260 -99 l 233 -228 b 332 -240 264 -236 297 -240 b 558 0 485 -240 558 -156 z "},"ñ":{"ha":638,"x_min":0,"x_max":0,"o":"m 260 1172 b 151 1090 217 1172 186 1150 l 207 1039 b 263 1078 226 1067 242 1078 b 314 1058 275 1078 286 1074 b 379 1036 343 1042 358 1036 b 488 1118 422 1036 453 1058 l 432 1169 b 376 1131 413 1142 397 1131 b 325 1150 364 1131 353 1135 b 260 1172 296 1167 281 1172 z m 558 0 l 558 972 l 419 972 l 419 393 l 417 393 l 243 972 l 79 972 l 79 0 l 218 0 l 218 644 l 221 644 l 414 0 z "},"o":{"ha":603,"x_min":0,"x_max":0,"o":"m 301 986 b 64 740 154 986 64 893 l 64 232 b 301 -14 64 79 154 -14 b 539 232 449 -14 539 79 l 539 740 b 301 986 539 893 449 986 z m 301 850 b 392 739 360 850 392 811 l 392 233 b 301 122 392 161 360 122 b 211 233 243 122 211 161 l 211 739 b 301 850 211 811 243 850 z "},"ó":{"ha":603,"x_min":0,"x_max":0,"o":"m 339 1028 l 460 1181 l 311 1181 l 231 1028 z m 301 986 b 64 740 154 986 64 893 l 64 232 b 301 -14 64 79 154 -14 b 539 232 449 -14 539 79 l 539 740 b 301 986 539 893 449 986 z m 301 850 b 392 739 360 850 392 811 l 392 233 b 301 122 392 161 360 122 b 211 233 243 122 211 161 l 211 739 b 301 850 211 811 243 850 z "},"ŏ":{"ha":603,"x_min":0,"x_max":0,"o":"m 367 1181 b 301 1124 367 1146 342 1124 b 236 1181 261 1124 236 1146 l 142 1181 b 301 1021 142 1079 200 1021 b 461 1181 403 1021 461 1079 z m 301 986 b 64 740 154 986 64 893 l 64 232 b 301 -14 64 79 154 -14 b 539 232 449 -14 539 79 l 539 740 b 301 986 539 893 449 986 z m 301 850 b 392 739 360 850 392 811 l 392 233 b 301 122 392 161 360 122 b 211 233 243 122 211 161 l 211 739 b 301 850 211 811 243 850 z "},"ô":{"ha":603,"x_min":0,"x_max":0,"o":"m 471 1028 l 376 1181 l 226 1181 l 132 1028 l 240 1028 l 301 1106 l 363 1028 z m 301 986 b 64 740 154 986 64 893 l 64 232 b 301 -14 64 79 154 -14 b 539 232 449 -14 539 79 l 539 740 b 301 986 539 893 449 986 z m 301 850 b 392 739 360 850 392 811 l 392 233 b 301 122 392 161 360 122 b 211 233 243 122 211 161 l 211 739 b 301 850 211 811 243 850 z "},"ö":{"ha":603,"x_min":0,"x_max":0,"o":"m 265 1038 l 265 1171 l 135 1171 l 135 1038 z m 468 1038 l 468 1171 l 338 1171 l 338 1038 z m 301 986 b 64 740 154 986 64 893 l 64 232 b 301 -14 64 79 154 -14 b 539 232 449 -14 539 79 l 539 740 b 301 986 539 893 449 986 z m 301 850 b 392 739 360 850 392 811 l 392 233 b 301 122 392 161 360 122 b 211 233 243 122 211 161 l 211 739 b 301 850 211 811 243 850 z "},"ò":{"ha":603,"x_min":0,"x_max":0,"o":"m 372 1028 l 292 1181 l 143 1181 l 264 1028 z m 301 986 b 64 740 154 986 64 893 l 64 232 b 301 -14 64 79 154 -14 b 539 232 449 -14 539 79 l 539 740 b 301 986 539 893 449 986 z m 301 850 b 392 739 360 850 392 811 l 392 233 b 301 122 392 161 360 122 b 211 233 243 122 211 161 l 211 739 b 301 850 211 811 243 850 z "},"ő":{"ha":603,"x_min":0,"x_max":0,"o":"m 236 1028 l 357 1181 l 219 1181 l 139 1028 z m 431 1028 l 551 1181 l 414 1181 l 333 1028 z m 301 986 b 64 740 154 986 64 893 l 64 232 b 301 -14 64 79 154 -14 b 539 232 449 -14 539 79 l 539 740 b 301 986 539 893 449 986 z m 301 850 b 392 739 360 850 392 811 l 392 233 b 301 122 392 161 360 122 b 211 233 243 122 211 161 l 211 739 b 301 850 211 811 243 850 z "},"ō":{"ha":603,"x_min":0,"x_max":0,"o":"m 435 1060 l 435 1149 l 168 1149 l 168 1060 z m 301 986 b 64 740 154 986 64 893 l 64 232 b 301 -14 64 79 154 -14 b 539 232 449 -14 539 79 l 539 740 b 301 986 539 893 449 986 z m 301 850 b 392 739 360 850 392 811 l 392 233 b 301 122 392 161 360 122 b 211 233 243 122 211 161 l 211 739 b 301 850 211 811 243 850 z "},"ø":{"ha":603,"x_min":0,"x_max":0,"o":"m 546 949 l 454 986 l 439 950 b 301 986 403 974 356 986 b 64 740 154 986 64 893 l 64 232 b 90 104 64 183 74 140 l 57 24 l 149 -14 l 164 22 b 301 -14 200 -1 247 -14 b 539 232 449 -14 539 79 l 539 740 b 513 868 539 789 529 832 z m 301 850 b 379 804 339 850 365 835 l 213 400 l 211 400 l 211 739 b 301 850 211 811 243 850 z m 390 572 l 392 572 l 392 233 b 301 122 392 161 360 122 b 224 168 264 122 238 138 z "},"ǿ":{"ha":603,"x_min":0,"x_max":0,"o":"m 339 1028 l 460 1181 l 311 1181 l 231 1028 z m 546 949 l 454 986 l 439 950 b 301 986 403 974 356 986 b 64 740 154 986 64 893 l 64 232 b 90 104 64 183 74 140 l 57 24 l 149 -14 l 164 22 b 301 -14 200 -1 247 -14 b 539 232 449 -14 539 79 l 539 740 b 513 868 539 789 529 832 z m 301 850 b 379 804 339 850 365 835 l 213 400 l 211 400 l 211 739 b 301 850 211 811 243 850 z m 390 572 l 392 572 l 392 233 b 301 122 392 161 360 122 b 224 168 264 122 238 138 z "},"õ":{"ha":603,"x_min":0,"x_max":0,"o":"m 242 1172 b 133 1090 199 1172 168 1150 l 189 1039 b 244 1078 208 1067 224 1078 b 296 1058 257 1078 268 1074 b 361 1036 325 1042 340 1036 b 469 1118 404 1036 435 1058 l 414 1169 b 358 1131 394 1142 379 1131 b 307 1150 346 1131 335 1135 b 242 1172 278 1167 263 1172 z m 301 986 b 64 740 154 986 64 893 l 64 232 b 301 -14 64 79 154 -14 b 539 232 449 -14 539 79 l 539 740 b 301 986 539 893 449 986 z m 301 850 b 392 739 360 850 392 811 l 392 233 b 301 122 392 161 360 122 b 211 233 243 122 211 161 l 211 739 b 301 850 211 811 243 850 z "},"œ":{"ha":833,"x_min":0,"x_max":0,"o":"m 786 836 l 786 972 l 308 972 b 64 726 150 972 64 886 l 64 246 b 308 0 64 86 150 0 l 786 0 l 786 136 l 519 136 l 519 425 l 735 425 l 735 561 l 519 561 l 519 836 z m 372 836 l 372 136 l 314 136 b 211 256 243 136 211 174 l 211 717 b 314 836 211 799 243 836 z "},"p":{"ha":565,"x_min":0,"x_max":0,"o":"m 79 972 l 79 0 l 226 0 l 226 403 l 292 403 b 536 649 450 403 536 489 l 536 726 b 292 972 536 886 450 972 z m 226 836 l 286 836 b 389 717 357 836 389 799 l 389 658 b 286 539 389 576 357 539 l 226 539 z "},"þ":{"ha":565,"x_min":0,"x_max":0,"o":"m 226 833 l 226 972 l 79 972 l 79 0 l 226 0 l 226 264 l 292 264 b 536 510 450 264 536 350 l 536 588 b 292 833 536 747 450 833 z m 226 697 l 286 697 b 389 578 357 697 389 660 l 389 519 b 286 400 389 438 357 400 l 226 400 z "},"q":{"ha":603,"x_min":0,"x_max":0,"o":"m 303 986 b 65 740 156 986 65 893 l 65 232 b 303 -14 65 79 156 -14 b 399 1 338 -14 371 -8 b 561 -79 433 -56 489 -79 l 575 57 b 500 81 543 57 517 63 b 540 232 526 121 540 172 l 540 740 b 303 986 540 893 450 986 z m 303 850 b 393 739 361 850 393 811 l 393 233 b 303 122 393 161 361 122 b 213 233 244 122 213 161 l 213 739 b 303 850 213 811 244 850 z "},"r":{"ha":581,"x_min":0,"x_max":0,"o":"m 397 0 l 553 0 l 418 443 b 522 657 486 482 522 554 l 522 726 b 278 972 522 886 436 972 l 65 972 l 65 0 l 213 0 l 213 411 l 281 411 z m 213 836 l 272 836 b 375 717 343 836 375 799 l 375 667 b 272 547 375 585 343 547 l 213 547 z "},"ŕ":{"ha":581,"x_min":0,"x_max":0,"o":"m 299 1028 l 419 1181 l 271 1181 l 190 1028 z m 397 0 l 553 0 l 418 443 b 522 657 486 482 522 554 l 522 726 b 278 972 522 886 436 972 l 65 972 l 65 0 l 213 0 l 213 411 l 281 411 z m 213 836 l 272 836 b 375 717 343 836 375 799 l 375 667 b 272 547 375 585 343 547 l 213 547 z "},"ř":{"ha":581,"x_min":0,"x_max":0,"o":"m 336 1028 l 431 1181 l 322 1181 l 261 1103 l 200 1181 l 92 1181 l 186 1028 z m 397 0 l 553 0 l 418 443 b 522 657 486 482 522 554 l 522 726 b 278 972 522 886 436 972 l 65 972 l 65 0 l 213 0 l 213 411 l 281 411 z m 213 836 l 272 836 b 375 717 343 836 375 799 l 375 667 b 272 547 375 585 343 547 l 213 547 z "},"ŗ":{"ha":581,"x_min":0,"x_max":0,"o":"m 397 0 l 553 0 l 418 443 b 522 657 486 482 522 554 l 522 726 b 278 972 522 886 436 972 l 65 972 l 65 0 l 213 0 l 213 411 l 281 411 z m 213 836 l 272 836 b 375 717 343 836 375 799 l 375 667 b 272 547 375 585 343 547 l 213 547 z m 372 -171 l 372 -56 l 231 -56 l 231 -183 l 276 -183 l 231 -283 l 300 -283 z "},"s":{"ha":497,"x_min":0,"x_max":0,"o":"m 251 986 b 32 768 111 986 32 907 l 32 747 b 213 439 32 633 78 553 b 340 246 311 356 340 307 l 340 214 b 257 122 340 153 313 122 b 174 214 201 122 174 153 l 174 283 l 32 269 l 32 204 b 260 -14 32 65 114 -14 b 488 204 406 -14 488 65 l 488 253 b 303 564 488 369 438 450 b 179 753 204 647 179 696 l 179 765 b 254 850 179 821 206 850 b 329 765 303 850 329 821 l 329 729 l 471 743 l 471 768 b 251 986 471 907 392 986 z "},"ś":{"ha":497,"x_min":0,"x_max":0,"o":"m 292 1028 l 413 1181 l 264 1181 l 183 1028 z m 251 986 b 32 768 111 986 32 907 l 32 747 b 213 439 32 633 78 553 b 340 246 311 356 340 307 l 340 214 b 257 122 340 153 313 122 b 174 214 201 122 174 153 l 174 283 l 32 269 l 32 204 b 260 -14 32 65 114 -14 b 488 204 406 -14 488 65 l 488 253 b 303 564 488 369 438 450 b 179 753 204 647 179 696 l 179 765 b 254 850 179 821 206 850 b 329 765 303 850 329 821 l 329 729 l 471 743 l 471 768 b 251 986 471 907 392 986 z "},"š":{"ha":497,"x_min":0,"x_max":0,"o":"m 329 1028 l 424 1181 l 315 1181 l 254 1103 l 193 1181 l 85 1181 l 179 1028 z m 251 986 b 32 768 111 986 32 907 l 32 747 b 213 439 32 633 78 553 b 340 246 311 356 340 307 l 340 214 b 257 122 340 153 313 122 b 174 214 201 122 174 153 l 174 283 l 32 269 l 32 204 b 260 -14 32 65 114 -14 b 488 204 406 -14 488 65 l 488 253 b 303 564 488 369 438 450 b 179 753 204 647 179 696 l 179 765 b 254 850 179 821 206 850 b 329 765 303 850 329 821 l 329 729 l 471 743 l 471 768 b 251 986 471 907 392 986 z "},"ş":{"ha":496,"x_min":0,"x_max":0,"o":"m 251 986 b 32 764 115 986 32 907 l 32 742 b 210 439 32 636 78 558 b 336 249 307 351 336 310 l 336 218 b 257 122 336 149 301 122 b 172 215 204 122 172 150 l 172 286 l 31 272 l 31 203 b 221 -12 31 74 106 0 l 222 -74 l 236 -74 b 285 -115 272 -74 285 -85 b 253 -149 285 -137 274 -149 b 221 -115 232 -149 221 -137 l 221 -104 l 118 -110 l 118 -118 b 251 -204 118 -175 164 -204 b 392 -122 347 -204 392 -178 b 289 -49 392 -72 358 -49 l 289 -12 b 483 208 407 -1 483 76 l 483 254 b 306 564 483 367 438 444 b 179 747 208 651 179 693 l 179 768 b 253 850 179 824 210 850 b 329 757 304 850 329 824 l 329 726 l 471 740 l 471 769 b 251 986 471 913 388 986 z "},"ŝ":{"ha":497,"x_min":0,"x_max":0,"o":"m 424 1028 l 329 1181 l 179 1181 l 85 1028 l 193 1028 l 254 1106 l 315 1028 z m 251 986 b 32 768 111 986 32 907 l 32 747 b 213 439 32 633 78 553 b 340 246 311 356 340 307 l 340 214 b 257 122 340 153 313 122 b 174 214 201 122 174 153 l 174 283 l 32 269 l 32 204 b 260 -14 32 65 114 -14 b 488 204 406 -14 488 65 l 488 253 b 303 564 488 369 438 450 b 179 753 204 647 179 696 l 179 765 b 254 850 179 821 206 850 b 329 765 303 850 329 821 l 329 729 l 471 743 l 471 768 b 251 986 471 907 392 986 z "},"ș":{"ha":497,"x_min":0,"x_max":0,"o":"m 251 986 b 32 768 111 986 32 907 l 32 747 b 213 439 32 633 78 553 b 340 246 311 356 340 307 l 340 214 b 257 122 340 153 313 122 b 174 214 201 122 174 153 l 174 283 l 32 269 l 32 204 b 260 -14 32 65 114 -14 b 488 204 406 -14 488 65 l 488 253 b 303 564 488 369 438 450 b 179 753 204 647 179 696 l 179 765 b 254 850 179 821 206 850 b 329 765 303 850 329 821 l 329 729 l 471 743 l 471 768 b 251 986 471 907 392 986 z m 325 -171 l 325 -56 l 183 -56 l 183 -183 l 229 -183 l 183 -283 l 253 -283 z "},"ß":{"ha":994,"x_min":0,"x_max":0,"o":"m 251 986 b 32 768 111 986 32 907 l 32 747 b 213 439 32 633 78 553 b 340 246 311 356 340 307 l 340 214 b 257 122 340 153 313 122 b 174 214 201 122 174 153 l 174 283 l 32 269 l 32 204 b 260 -14 32 65 114 -14 b 488 204 406 -14 488 65 l 488 253 b 303 564 488 369 438 450 b 179 753 204 647 179 696 l 179 765 b 254 850 179 821 206 850 b 329 765 303 850 329 821 l 329 729 l 471 743 l 471 768 b 251 986 471 907 392 986 z m 749 986 b 529 768 608 986 529 907 l 529 747 b 710 439 529 633 575 553 b 838 246 808 356 838 307 l 838 214 b 754 122 838 153 810 122 b 671 214 699 122 671 153 l 671 283 l 529 269 l 529 204 b 757 -14 529 65 611 -14 b 985 204 903 -14 985 65 l 985 253 b 800 564 985 369 935 450 b 676 753 701 647 676 696 l 676 765 b 751 850 676 821 703 850 b 826 765 800 850 826 821 l 826 729 l 968 743 l 968 768 b 749 986 968 907 889 986 z "},"t":{"ha":489,"x_min":0,"x_max":0,"o":"m 475 833 l 475 972 l 14 972 l 14 833 l 171 833 l 171 0 l 318 0 l 318 833 z "},"ŧ":{"ha":489,"x_min":0,"x_max":0,"o":"m 475 833 l 475 972 l 14 972 l 14 833 l 171 833 l 171 549 l 67 549 l 67 421 l 171 421 l 171 0 l 318 0 l 318 421 l 422 421 l 422 549 l 318 549 l 318 833 z "},"ť":{"ha":489,"x_min":0,"x_max":0,"o":"m 319 1028 l 414 1181 l 306 1181 l 244 1103 l 183 1181 l 75 1181 l 169 1028 z m 475 833 l 475 972 l 14 972 l 14 833 l 171 833 l 171 0 l 318 0 l 318 833 z "},"ţ":{"ha":489,"x_min":0,"x_max":0,"o":"m 475 833 l 475 972 l 14 972 l 14 833 l 171 833 l 171 0 l 213 0 l 213 -74 l 226 -74 b 275 -115 263 -74 275 -85 b 243 -149 275 -137 264 -149 b 211 -115 222 -149 211 -137 l 211 -104 l 108 -110 l 108 -118 b 242 -204 108 -175 154 -204 b 382 -122 338 -204 382 -178 b 279 -49 382 -72 349 -49 l 279 0 l 318 0 l 318 833 z "},"ț":{"ha":489,"x_min":0,"x_max":0,"o":"m 475 833 l 475 972 l 14 972 l 14 833 l 171 833 l 171 0 l 318 0 l 318 833 z m 315 -171 l 315 -56 l 174 -56 l 174 -183 l 219 -183 l 174 -283 l 243 -283 z "},"u":{"ha":597,"x_min":0,"x_max":0,"o":"m 526 972 l 379 972 l 379 222 b 296 125 379 151 347 125 b 213 222 244 125 213 151 l 213 972 l 71 972 l 71 218 b 297 -14 71 65 158 -14 b 526 218 439 -14 526 65 z "},"ú":{"ha":597,"x_min":0,"x_max":0,"o":"m 336 1028 l 457 1181 l 308 1181 l 228 1028 z m 526 972 l 379 972 l 379 222 b 296 125 379 151 347 125 b 213 222 244 125 213 151 l 213 972 l 71 972 l 71 218 b 297 -14 71 65 158 -14 b 526 218 439 -14 526 65 z "},"ŭ":{"ha":597,"x_min":0,"x_max":0,"o":"m 364 1181 b 299 1124 364 1146 339 1124 b 233 1181 258 1124 233 1146 l 139 1181 b 299 1021 139 1079 197 1021 b 458 1181 400 1021 458 1079 z m 526 972 l 379 972 l 379 222 b 296 125 379 151 347 125 b 213 222 244 125 213 151 l 213 972 l 71 972 l 71 218 b 297 -14 71 65 158 -14 b 526 218 439 -14 526 65 z "},"û":{"ha":597,"x_min":0,"x_max":0,"o":"m 468 1028 l 374 1181 l 224 1181 l 129 1028 l 238 1028 l 299 1106 l 360 1028 z m 526 972 l 379 972 l 379 222 b 296 125 379 151 347 125 b 213 222 244 125 213 151 l 213 972 l 71 972 l 71 218 b 297 -14 71 65 158 -14 b 526 218 439 -14 526 65 z "},"ü":{"ha":597,"x_min":0,"x_max":0,"o":"m 263 1038 l 263 1171 l 132 1171 l 132 1038 z m 465 1038 l 465 1171 l 335 1171 l 335 1038 z m 526 972 l 379 972 l 379 222 b 296 125 379 151 347 125 b 213 222 244 125 213 151 l 213 972 l 71 972 l 71 218 b 297 -14 71 65 158 -14 b 526 218 439 -14 526 65 z "},"ù":{"ha":597,"x_min":0,"x_max":0,"o":"m 369 1028 l 289 1181 l 140 1181 l 261 1028 z m 526 972 l 379 972 l 379 222 b 296 125 379 151 347 125 b 213 222 244 125 213 151 l 213 972 l 71 972 l 71 218 b 297 -14 71 65 158 -14 b 526 218 439 -14 526 65 z "},"ű":{"ha":597,"x_min":0,"x_max":0,"o":"m 233 1028 l 354 1181 l 217 1181 l 136 1028 z m 428 1028 l 549 1181 l 411 1181 l 331 1028 z m 526 972 l 379 972 l 379 222 b 296 125 379 151 347 125 b 213 222 244 125 213 151 l 213 972 l 71 972 l 71 218 b 297 -14 71 65 158 -14 b 526 218 439 -14 526 65 z "},"ū":{"ha":597,"x_min":0,"x_max":0,"o":"m 432 1060 l 432 1149 l 165 1149 l 165 1060 z m 526 972 l 379 972 l 379 222 b 296 125 379 151 347 125 b 213 222 244 125 213 151 l 213 972 l 71 972 l 71 218 b 297 -14 71 65 158 -14 b 526 218 439 -14 526 65 z "},"ų":{"ha":597,"x_min":0,"x_max":0,"o":"m 526 972 l 379 972 l 379 222 b 296 125 379 151 347 125 b 213 222 244 125 213 151 l 213 972 l 71 972 l 71 218 b 297 -14 71 65 158 -14 l 306 -14 l 306 -17 b 239 -119 260 -47 239 -82 b 360 -204 239 -175 282 -204 b 454 -182 394 -204 422 -199 l 447 -97 b 397 -112 433 -107 415 -112 b 353 -74 371 -112 353 -100 b 403 4 353 -53 364 -25 b 526 218 481 36 526 108 z "},"ů":{"ha":597,"x_min":0,"x_max":0,"o":"m 299 1226 b 193 1119 238 1226 193 1182 b 299 1014 193 1058 238 1014 b 404 1119 360 1014 404 1058 b 299 1226 404 1182 360 1226 z m 299 1163 b 338 1119 322 1163 338 1146 b 299 1078 338 1094 322 1078 b 260 1119 275 1078 260 1094 b 299 1163 260 1146 275 1163 z m 526 972 l 379 972 l 379 222 b 296 125 379 151 347 125 b 213 222 244 125 213 151 l 213 972 l 71 972 l 71 218 b 297 -14 71 65 158 -14 b 526 218 439 -14 526 65 z "},"ũ":{"ha":597,"x_min":0,"x_max":0,"o":"m 239 1172 b 131 1090 196 1172 165 1150 l 186 1039 b 242 1078 206 1067 221 1078 b 293 1058 254 1078 265 1074 b 358 1036 322 1042 338 1036 b 467 1118 401 1036 432 1058 l 411 1169 b 356 1131 392 1142 376 1131 b 304 1150 343 1131 332 1135 b 239 1172 275 1167 260 1172 z m 526 972 l 379 972 l 379 222 b 296 125 379 151 347 125 b 213 222 244 125 213 151 l 213 972 l 71 972 l 71 218 b 297 -14 71 65 158 -14 b 526 218 439 -14 526 65 z "},"v":{"ha":571,"x_min":0,"x_max":0,"o":"m 381 0 l 544 972 l 397 972 l 289 231 l 286 231 l 176 972 l 26 972 l 190 0 z "},"w":{"ha":824,"x_min":0,"x_max":0,"o":"m 647 0 l 797 972 l 650 972 l 565 328 l 563 328 l 479 972 l 349 972 l 265 328 l 263 328 l 178 972 l 26 972 l 176 0 l 326 0 l 411 579 l 414 579 l 497 0 z "},"ẃ":{"ha":824,"x_min":0,"x_max":0,"o":"m 450 1028 l 571 1181 l 422 1181 l 342 1028 z m 647 0 l 797 972 l 650 972 l 565 328 l 563 328 l 479 972 l 349 972 l 265 328 l 263 328 l 178 972 l 26 972 l 176 0 l 326 0 l 411 579 l 414 579 l 497 0 z "},"ŵ":{"ha":824,"x_min":0,"x_max":0,"o":"m 582 1028 l 488 1181 l 338 1181 l 243 1028 l 351 1028 l 413 1106 l 474 1028 z m 647 0 l 797 972 l 650 972 l 565 328 l 563 328 l 479 972 l 349 972 l 265 328 l 263 328 l 178 972 l 26 972 l 176 0 l 326 0 l 411 579 l 414 579 l 497 0 z "},"ẅ":{"ha":824,"x_min":0,"x_max":0,"o":"m 376 1038 l 376 1171 l 246 1171 l 246 1038 z m 579 1038 l 579 1171 l 449 1171 l 449 1038 z m 647 0 l 797 972 l 650 972 l 565 328 l 563 328 l 479 972 l 349 972 l 265 328 l 263 328 l 178 972 l 26 972 l 176 0 l 326 0 l 411 579 l 414 579 l 497 0 z "},"ẁ":{"ha":824,"x_min":0,"x_max":0,"o":"m 483 1028 l 403 1181 l 254 1181 l 375 1028 z m 647 0 l 797 972 l 650 972 l 565 328 l 563 328 l 479 972 l 349 972 l 265 328 l 263 328 l 178 972 l 26 972 l 176 0 l 326 0 l 411 579 l 414 579 l 497 0 z "},"x":{"ha":571,"x_min":0,"x_max":0,"o":"m 372 499 l 547 972 l 394 972 l 290 663 l 288 663 l 179 972 l 24 972 l 199 504 l 13 0 l 165 0 l 279 342 l 282 342 l 403 0 l 558 0 z "},"y":{"ha":522,"x_min":0,"x_max":0,"o":"m 336 439 l 538 972 l 385 972 l 267 628 l 264 628 l 140 972 l -15 972 l 189 440 l 189 0 l 336 0 z "},"ý":{"ha":522,"x_min":0,"x_max":0,"o":"m 299 1028 l 419 1181 l 271 1181 l 190 1028 z m 336 439 l 538 972 l 385 972 l 267 628 l 264 628 l 140 972 l -15 972 l 189 440 l 189 0 l 336 0 z "},"ŷ":{"ha":522,"x_min":0,"x_max":0,"o":"m 431 1028 l 336 1181 l 186 1181 l 92 1028 l 200 1028 l 261 1106 l 322 1028 z m 336 439 l 538 972 l 385 972 l 267 628 l 264 628 l 140 972 l -15 972 l 189 440 l 189 0 l 336 0 z "},"ÿ":{"ha":522,"x_min":0,"x_max":0,"o":"m 225 1038 l 225 1171 l 94 1171 l 94 1038 z m 428 1038 l 428 1171 l 297 1171 l 297 1038 z m 336 439 l 538 972 l 385 972 l 267 628 l 264 628 l 140 972 l -15 972 l 189 440 l 189 0 l 336 0 z "},"ỳ":{"ha":522,"x_min":0,"x_max":0,"o":"m 332 1028 l 251 1181 l 103 1181 l 224 1028 z m 336 439 l 538 972 l 385 972 l 267 628 l 264 628 l 140 972 l -15 972 l 189 440 l 189 0 l 336 0 z "},"z":{"ha":486,"x_min":0,"x_max":0,"o":"m 457 850 l 457 972 l 40 972 l 40 836 l 297 836 l 26 122 l 26 0 l 457 0 l 457 136 l 186 136 z "},"ź":{"ha":486,"x_min":0,"x_max":0,"o":"m 283 1028 l 404 1181 l 256 1181 l 175 1028 z m 457 850 l 457 972 l 40 972 l 40 836 l 297 836 l 26 122 l 26 0 l 457 0 l 457 136 l 186 136 z "},"ž":{"ha":486,"x_min":0,"x_max":0,"o":"m 321 1028 l 415 1181 l 307 1181 l 246 1103 l 185 1181 l 76 1181 l 171 1028 z m 457 850 l 457 972 l 40 972 l 40 836 l 297 836 l 26 122 l 26 0 l 457 0 l 457 136 l 186 136 z "},"ż":{"ha":486,"x_min":0,"x_max":0,"o":"m 317 1032 l 317 1176 l 175 1176 l 175 1032 z m 457 850 l 457 972 l 40 972 l 40 836 l 297 836 l 26 122 l 26 0 l 457 0 l 457 136 l 186 136 z "},"ﬁ":{"ha":810,"x_min":0,"x_max":0,"o":"m 486 836 l 486 972 l 79 972 l 79 0 l 226 0 l 226 425 l 435 425 l 435 561 l 226 561 l 226 836 z m 731 0 l 731 972 l 583 972 l 583 0 z "},"ﬂ":{"ha":992,"x_min":0,"x_max":0,"o":"m 486 836 l 486 972 l 79 972 l 79 0 l 226 0 l 226 425 l 435 425 l 435 561 l 226 561 l 226 836 z m 731 139 l 731 972 l 583 972 l 583 0 l 976 0 l 976 139 z "},"ª":{"ha":367,"x_min":0,"x_max":0,"o":"m 174 986 b 33 846 86 986 33 935 l 33 840 l 122 836 l 122 844 b 171 900 122 881 140 900 b 219 847 201 900 219 881 l 219 804 l 165 804 b 28 679 81 804 28 757 l 28 661 b 144 544 28 589 76 544 b 236 597 186 544 219 561 l 239 597 l 247 551 l 314 551 l 314 843 b 174 986 314 933 263 986 z m 219 726 l 219 686 b 167 628 219 649 200 628 b 122 667 139 628 122 642 l 122 683 b 171 726 122 710 140 726 z m 314 363 l 314 447 l 28 447 l 28 363 z "},"º":{"ha":392,"x_min":0,"x_max":0,"o":"m 196 986 b 51 836 104 986 51 931 l 51 694 b 196 544 51 600 104 544 b 340 694 288 544 340 600 l 340 836 b 196 986 340 931 288 986 z m 196 900 b 247 840 229 900 247 879 l 247 690 b 196 631 247 651 229 631 b 144 690 163 631 144 651 l 144 840 b 196 900 144 879 163 900 z m 340 363 l 340 447 l 51 447 l 51 363 z "},"⁄":{"ha":167,"x_min":0,"x_max":0,"o":"m -46 -14 l 304 986 l 213 986 l -137 -14 z "},"½":{"ha":768,"x_min":0,"x_max":0,"o":"m 226 -14 l 576 986 l 485 986 l 135 -14 z m 224 400 l 224 972 l 153 972 b 15 899 132 925 89 901 l 15 828 l 124 828 l 124 400 z m 601 586 b 460 442 513 586 460 531 l 460 401 l 556 397 l 556 428 b 600 496 556 476 567 496 b 643 442 629 496 643 479 l 643 429 b 592 288 643 382 632 349 l 460 81 l 460 0 l 743 0 l 743 92 l 576 92 l 669 236 b 743 426 728 328 743 369 l 743 449 b 601 586 743 535 690 586 z "},"⅓":{"ha":788,"x_min":0,"x_max":0,"o":"m 226 -14 l 576 986 l 485 986 l 135 -14 z m 224 400 l 224 972 l 153 972 b 15 899 132 925 89 901 l 15 828 l 124 828 l 124 400 z m 610 586 b 465 438 518 586 465 531 l 465 407 l 563 403 l 563 428 b 608 496 563 476 576 496 b 654 435 639 496 654 476 l 654 408 b 601 342 654 361 640 342 l 560 342 l 560 251 l 601 251 b 661 181 644 251 661 231 l 661 140 b 611 76 661 97 644 76 b 561 144 576 76 561 96 l 561 169 l 464 165 l 464 135 b 613 -14 464 42 518 -14 b 761 135 707 -14 761 42 l 761 174 b 696 299 761 235 740 278 l 696 301 b 754 410 735 321 754 357 l 754 438 b 610 586 754 531 701 586 z "},"⅔":{"ha":844,"x_min":0,"x_max":0,"o":"m 163 986 b 21 842 74 986 21 931 l 21 801 l 117 797 l 117 828 b 161 896 117 876 128 896 b 204 842 190 896 204 879 l 204 829 b 153 688 204 782 193 749 l 21 481 l 21 400 l 304 400 l 304 492 l 138 492 l 231 636 b 304 826 289 728 304 769 l 304 849 b 163 986 304 935 251 986 z m 283 -14 l 633 986 l 542 986 l 192 -14 z m 667 586 b 522 438 575 586 522 531 l 522 407 l 619 403 l 619 428 b 665 496 619 476 633 496 b 711 435 696 496 711 476 l 711 408 b 658 342 711 361 697 342 l 617 342 l 617 251 l 658 251 b 718 181 701 251 718 231 l 718 140 b 668 76 718 97 701 76 b 618 144 633 76 618 96 l 618 169 l 521 165 l 521 135 b 669 -14 521 42 575 -14 b 818 135 764 -14 818 42 l 818 174 b 753 299 818 235 797 278 l 753 301 b 811 410 792 321 811 357 l 811 438 b 667 586 811 531 758 586 z "},"¼":{"ha":735,"x_min":0,"x_max":0,"o":"m 225 -14 l 575 986 l 483 986 l 133 -14 z m 225 400 l 225 972 l 154 972 b 17 899 133 925 90 901 l 17 828 l 125 828 l 125 400 z m 676 211 l 676 572 l 575 572 l 390 203 l 390 121 l 576 121 l 576 0 l 676 0 l 676 121 l 719 121 l 719 211 z m 574 393 l 576 393 l 576 211 l 486 211 z "},"¾":{"ha":811,"x_min":0,"x_max":0,"o":"m 172 986 b 28 838 81 986 28 931 l 28 807 l 125 803 l 125 828 b 171 896 125 876 139 896 b 217 835 201 896 217 876 l 217 808 b 164 742 217 761 203 742 l 122 742 l 122 651 l 164 651 b 224 581 207 651 224 631 l 224 540 b 174 476 224 497 207 476 b 124 544 139 476 124 496 l 124 569 l 26 565 l 26 535 b 175 386 26 442 81 386 b 324 535 269 386 324 442 l 324 574 b 258 699 324 635 303 678 l 258 701 b 317 810 297 721 317 757 l 317 838 b 172 986 317 931 264 986 z m 301 -14 l 651 986 l 560 986 l 210 -14 z m 753 211 l 753 572 l 651 572 l 467 203 l 467 121 l 653 121 l 653 0 l 753 0 l 753 121 l 796 121 l 796 211 z m 650 393 l 653 393 l 653 211 l 563 211 z "},"⅛":{"ha":794,"x_min":0,"x_max":0,"o":"m 226 -14 l 576 986 l 485 986 l 135 -14 z m 224 400 l 224 972 l 153 972 b 15 899 132 925 89 901 l 15 828 l 124 828 l 124 400 z m 617 586 b 469 438 525 586 469 529 l 469 410 b 529 301 469 357 489 321 l 529 299 b 464 174 486 278 464 235 l 464 135 b 617 -14 464 43 521 -14 b 769 135 713 -14 769 43 l 769 174 b 704 299 769 235 747 278 l 704 301 b 764 410 744 321 764 357 l 764 438 b 617 586 764 529 708 586 z m 617 496 b 664 438 647 496 664 475 l 664 400 b 617 342 664 361 647 342 b 569 400 586 342 569 361 l 569 438 b 617 496 569 475 586 496 z m 617 251 b 669 188 650 251 669 229 l 669 140 b 617 76 669 99 650 76 b 564 140 583 76 564 99 l 564 188 b 617 251 564 229 583 251 z "},"⅜":{"ha":871,"x_min":0,"x_max":0,"o":"m 171 986 b 26 838 79 986 26 931 l 26 807 l 124 803 l 124 828 b 169 896 124 876 138 896 b 215 835 200 896 215 876 l 215 808 b 163 742 215 761 201 742 l 121 742 l 121 651 l 163 651 b 222 581 206 651 222 631 l 222 540 b 172 476 222 497 206 476 b 122 544 138 476 122 496 l 122 569 l 25 565 l 25 535 b 174 386 25 442 79 386 b 322 535 268 386 322 442 l 322 574 b 257 699 322 635 301 678 l 257 701 b 315 810 296 721 315 757 l 315 838 b 171 986 315 931 263 986 z m 303 -14 l 653 986 l 561 986 l 211 -14 z m 693 586 b 546 438 601 586 546 529 l 546 410 b 606 301 546 357 565 321 l 606 299 b 540 174 563 278 540 235 l 540 135 b 693 -14 540 43 597 -14 b 846 135 789 -14 846 43 l 846 174 b 781 299 846 235 824 278 l 781 301 b 840 410 821 321 840 357 l 840 438 b 693 586 840 529 785 586 z m 693 496 b 740 438 724 496 740 475 l 740 400 b 693 342 740 361 724 342 b 646 400 663 342 646 361 l 646 438 b 693 496 646 475 663 496 z m 693 251 b 746 188 726 251 746 229 l 746 140 b 693 76 746 99 726 76 b 640 140 660 76 640 99 l 640 188 b 693 251 640 229 660 251 z "},"⅝":{"ha":869,"x_min":0,"x_max":0,"o":"m 301 -14 l 651 986 l 560 986 l 210 -14 z m 197 785 b 135 765 169 785 149 778 l 132 765 l 138 879 l 300 879 l 300 972 l 53 972 l 33 640 l 125 638 l 126 651 b 174 694 129 679 147 694 b 222 631 206 694 222 672 l 222 540 b 172 476 222 499 207 476 b 125 543 140 476 125 496 l 125 557 l 28 553 l 28 535 b 175 386 28 442 82 386 b 322 535 268 386 322 442 l 322 636 b 197 785 322 729 275 785 z m 692 586 b 544 438 600 586 544 529 l 544 410 b 604 301 544 357 564 321 l 604 299 b 539 174 561 278 539 235 l 539 135 b 692 -14 539 43 596 -14 b 844 135 788 -14 844 43 l 844 174 b 779 299 844 235 822 278 l 779 301 b 839 410 819 321 839 357 l 839 438 b 692 586 839 529 783 586 z m 692 496 b 739 438 722 496 739 475 l 739 400 b 692 342 739 361 722 342 b 644 400 661 342 644 361 l 644 438 b 692 496 644 475 661 496 z m 692 251 b 744 188 725 251 744 229 l 744 140 b 692 76 744 99 725 76 b 639 140 658 76 639 99 l 639 188 b 692 251 639 229 658 251 z "},"⅞":{"ha":767,"x_min":0,"x_max":0,"o":"m 203 -14 l 553 986 l 461 986 l 111 -14 z m 300 885 l 300 972 l 14 972 l 14 876 l 199 876 l 32 400 l 135 400 z m 590 586 b 443 438 499 586 443 529 l 443 410 b 503 301 443 357 463 321 l 503 299 b 438 174 460 278 438 235 l 438 135 b 590 -14 438 43 494 -14 b 743 135 686 -14 743 43 l 743 174 b 678 299 743 235 721 278 l 678 301 b 738 410 718 321 738 357 l 738 438 b 590 586 738 529 682 586 z m 590 496 b 638 438 621 496 638 475 l 638 400 b 590 342 638 361 621 342 b 543 400 560 342 543 361 l 543 438 b 590 496 543 475 560 496 z m 590 251 b 643 188 624 251 643 229 l 643 140 b 590 76 643 99 624 76 b 538 140 557 76 538 99 l 538 188 b 590 251 538 229 557 251 z "},"₀":{"ha":378,"x_min":0,"x_max":0,"o":"m 189 447 b 40 294 97 447 40 389 l 40 0 b 189 -153 40 -94 97 -153 b 338 0 281 -153 338 -94 l 338 294 b 189 447 338 389 281 447 z m 189 357 b 238 294 221 357 238 336 l 238 0 b 189 -62 238 -42 221 -62 b 140 0 157 -62 140 -42 l 140 294 b 189 357 140 336 157 357 z "},"₁":{"ha":272,"x_min":0,"x_max":0,"o":"m 224 -139 l 224 433 l 153 433 b 15 360 132 386 89 363 l 15 289 l 124 289 l 124 -139 z "},"₂":{"ha":329,"x_min":0,"x_max":0,"o":"m 163 447 b 21 303 74 447 21 392 l 21 263 l 117 258 l 117 289 b 161 357 117 338 128 357 b 204 303 190 357 204 340 l 204 290 b 153 149 204 243 193 210 l 21 -58 l 21 -139 l 304 -139 l 304 -47 l 138 -47 l 231 97 b 304 288 289 189 304 231 l 304 310 b 163 447 304 396 251 447 z "},"₃":{"ha":349,"x_min":0,"x_max":0,"o":"m 171 447 b 26 299 79 447 26 392 l 26 268 l 124 264 l 124 289 b 169 357 124 338 138 357 b 215 296 200 357 215 338 l 215 269 b 163 203 215 222 201 203 l 121 203 l 121 113 l 163 113 b 222 42 206 113 222 92 l 222 1 b 172 -62 222 -42 206 -62 b 122 6 138 -62 122 -43 l 122 31 l 25 26 l 25 -4 b 174 -153 25 -97 79 -153 b 322 -4 268 -153 322 -97 l 322 35 b 257 160 322 96 301 139 l 257 163 b 315 271 296 182 315 218 l 315 299 b 171 447 315 392 263 447 z "},"₄":{"ha":357,"x_min":0,"x_max":0,"o":"m 297 72 l 297 433 l 196 433 l 11 64 l 11 -18 l 197 -18 l 197 -139 l 297 -139 l 297 -18 l 340 -18 l 340 72 z m 194 254 l 197 254 l 197 72 l 107 72 z "},"₅":{"ha":347,"x_min":0,"x_max":0,"o":"m 197 246 b 135 226 169 246 149 239 l 132 226 l 138 340 l 300 340 l 300 433 l 53 433 l 33 101 l 125 99 l 126 113 b 174 156 129 140 147 156 b 222 92 206 156 222 133 l 222 1 b 172 -62 222 -40 207 -62 b 125 4 140 -62 125 -43 l 125 18 l 28 14 l 28 -4 b 175 -153 28 -97 82 -153 b 322 -4 268 -153 322 -97 l 322 97 b 197 246 322 190 275 246 z "},"₆":{"ha":371,"x_min":0,"x_max":0,"o":"m 188 447 b 40 301 94 447 40 393 l 40 0 b 189 -153 40 -94 97 -153 b 338 0 281 -153 338 -94 l 338 74 b 217 221 338 171 283 221 b 143 196 183 221 158 208 l 140 196 l 140 300 b 188 357 140 339 156 357 b 235 292 221 357 235 338 l 235 275 l 333 279 l 333 304 b 188 447 333 394 279 447 z m 189 131 b 238 68 221 131 238 110 l 238 0 b 189 -62 238 -42 221 -62 b 140 0 157 -62 140 -42 l 140 68 b 189 131 140 110 157 131 z "},"₇":{"ha":306,"x_min":0,"x_max":0,"o":"m 299 346 l 299 433 l 13 433 l 13 338 l 197 338 l 31 -139 l 133 -139 z "},"₈":{"ha":356,"x_min":0,"x_max":0,"o":"m 178 447 b 31 299 86 447 31 390 l 31 271 b 90 163 31 218 50 182 l 90 160 b 25 35 47 139 25 96 l 25 -4 b 178 -153 25 -96 82 -153 b 331 -4 274 -153 331 -96 l 331 35 b 265 160 331 96 308 139 l 265 163 b 325 271 306 182 325 218 l 325 299 b 178 447 325 390 269 447 z m 178 357 b 225 299 208 357 225 336 l 225 261 b 178 203 225 222 208 203 b 131 261 147 203 131 222 l 131 299 b 178 357 131 336 147 357 z m 178 113 b 231 49 211 113 231 90 l 231 1 b 178 -62 231 -40 211 -62 b 125 1 144 -62 125 -40 l 125 49 b 178 113 125 90 144 113 z "},"₉":{"ha":371,"x_min":0,"x_max":0,"o":"m 181 -153 b 328 -7 274 -153 328 -99 l 328 294 b 179 447 328 389 271 447 b 31 294 88 447 31 389 l 31 221 b 151 74 31 124 85 74 b 225 99 185 74 210 86 l 228 99 l 228 -6 b 181 -62 228 -44 213 -62 b 133 3 147 -62 133 -43 l 133 19 l 35 15 l 35 -10 b 181 -153 35 -100 89 -153 z m 179 164 b 131 226 147 164 131 185 l 131 294 b 179 357 131 336 147 357 b 228 294 211 357 228 336 l 228 226 b 179 164 228 185 211 164 z "},"⁰":{"ha":378,"x_min":0,"x_max":0,"o":"m 189 1125 b 40 972 97 1125 40 1067 l 40 678 b 189 525 40 583 97 525 b 338 678 281 525 338 583 l 338 972 b 189 1125 338 1067 281 1125 z m 189 1035 b 238 972 221 1035 238 1014 l 238 678 b 189 615 238 636 221 615 b 140 678 157 615 140 636 l 140 972 b 189 1035 140 1014 157 1035 z "},"¹":{"ha":272,"x_min":0,"x_max":0,"o":"m 224 539 l 224 1111 l 153 1111 b 15 1038 132 1064 89 1040 l 15 967 l 124 967 l 124 539 z "},"²":{"ha":329,"x_min":0,"x_max":0,"o":"m 163 1125 b 21 981 74 1125 21 1069 l 21 940 l 117 936 l 117 967 b 161 1035 117 1015 128 1035 b 204 981 190 1035 204 1018 l 204 968 b 153 826 204 921 193 888 l 21 619 l 21 539 l 304 539 l 304 631 l 138 631 l 231 775 b 304 965 289 867 304 908 l 304 988 b 163 1125 304 1074 251 1125 z "},"³":{"ha":349,"x_min":0,"x_max":0,"o":"m 171 1125 b 26 976 79 1125 26 1069 l 26 946 l 124 942 l 124 967 b 169 1035 124 1015 138 1035 b 215 974 200 1035 215 1015 l 215 947 b 163 881 215 900 201 881 l 121 881 l 121 790 l 163 790 b 222 719 206 790 222 769 l 222 679 b 172 615 222 636 206 615 b 122 683 138 615 122 635 l 122 708 l 25 704 l 25 674 b 174 525 25 581 79 525 b 322 674 268 525 322 581 l 322 713 b 257 838 322 774 301 817 l 257 840 b 315 949 296 860 315 896 l 315 976 b 171 1125 315 1069 263 1125 z "},"⁴":{"ha":357,"x_min":0,"x_max":0,"o":"m 297 750 l 297 1111 l 196 1111 l 11 742 l 11 660 l 197 660 l 197 539 l 297 539 l 297 660 l 340 660 l 340 750 z m 194 932 l 197 932 l 197 750 l 107 750 z "},"⁵":{"ha":347,"x_min":0,"x_max":0,"o":"m 197 924 b 135 904 169 924 149 917 l 132 904 l 138 1018 l 300 1018 l 300 1111 l 53 1111 l 33 779 l 125 776 l 126 790 b 174 833 129 818 147 833 b 222 769 206 833 222 811 l 222 679 b 172 615 222 638 207 615 b 125 682 140 615 125 635 l 125 696 l 28 692 l 28 674 b 175 525 28 581 82 525 b 322 674 268 525 322 581 l 322 775 b 197 924 322 868 275 924 z "},"⁶":{"ha":371,"x_min":0,"x_max":0,"o":"m 188 1125 b 40 979 94 1125 40 1071 l 40 678 b 189 525 40 583 97 525 b 338 678 281 525 338 583 l 338 751 b 217 899 338 849 283 899 b 143 874 183 899 158 886 l 140 874 l 140 978 b 188 1035 140 1017 156 1035 b 235 969 221 1035 235 1015 l 235 953 l 333 957 l 333 982 b 188 1125 333 1072 279 1125 z m 189 808 b 238 746 221 808 238 788 l 238 678 b 189 615 238 636 221 615 b 140 678 157 615 140 636 l 140 746 b 189 808 140 788 157 808 z "},"⁷":{"ha":306,"x_min":0,"x_max":0,"o":"m 299 1024 l 299 1111 l 13 1111 l 13 1015 l 197 1015 l 31 539 l 133 539 z "},"⁸":{"ha":356,"x_min":0,"x_max":0,"o":"m 178 1125 b 31 976 86 1125 31 1068 l 31 949 b 90 840 31 896 50 860 l 90 838 b 25 713 47 817 25 774 l 25 674 b 178 525 25 582 82 525 b 331 674 274 525 331 582 l 331 713 b 265 838 331 774 308 817 l 265 840 b 325 949 306 860 325 896 l 325 976 b 178 1125 325 1068 269 1125 z m 178 1035 b 225 976 208 1035 225 1014 l 225 939 b 178 881 225 900 208 881 b 131 939 147 881 131 900 l 131 976 b 178 1035 131 1014 147 1035 z m 178 790 b 231 726 211 790 231 768 l 231 679 b 178 615 231 638 211 615 b 125 679 144 615 125 638 l 125 726 b 178 790 125 768 144 790 z "},"⁹":{"ha":371,"x_min":0,"x_max":0,"o":"m 181 525 b 328 671 274 525 328 579 l 328 972 b 179 1125 328 1067 271 1125 b 31 972 88 1125 31 1067 l 31 899 b 151 751 31 801 85 751 b 225 776 185 751 210 764 l 228 776 l 228 672 b 181 615 228 633 213 615 b 133 681 147 615 133 635 l 133 697 l 35 693 l 35 668 b 181 525 35 578 89 525 z m 179 842 b 131 904 147 842 131 863 l 131 972 b 179 1035 131 1014 147 1035 b 228 972 211 1035 228 1014 l 228 904 b 179 842 228 863 211 842 z "},"*":{"ha":488,"x_min":0,"x_max":0,"o":"m 303 828 l 313 972 l 188 972 l 197 828 l 64 883 l 24 763 l 167 728 l 72 617 l 174 544 l 250 668 l 326 544 l 428 617 l 333 728 l 476 763 l 436 883 z "},"\\":{"ha":522,"x_min":0,"x_max":0,"o":"m 496 -69 l 146 1042 l 26 1042 l 376 -69 z "},"·":{"ha":314,"x_min":0,"x_max":0,"o":"m 235 408 l 235 564 l 79 564 l 79 408 z "},"•":{"ha":611,"x_min":0,"x_max":0,"o":"m 306 694 b 97 486 186 694 97 606 b 306 278 97 367 186 278 b 514 486 425 278 514 367 b 306 694 514 606 425 694 z "},":":{"ha":314,"x_min":0,"x_max":0,"o":"m 236 556 l 236 711 l 81 711 l 81 556 z m 236 0 l 236 156 l 81 156 l 81 0 z "},",":{"ha":314,"x_min":0,"x_max":0,"o":"m 235 14 l 235 156 l 79 156 l 79 0 l 129 0 l 79 -156 l 156 -156 z "},"…":{"ha":1111,"x_min":0,"x_max":0,"o":"m 263 0 l 263 156 l 107 156 l 107 0 z m 633 0 l 633 156 l 478 156 l 478 0 z m 1004 0 l 1004 156 l 849 156 l 849 0 z "},"!":{"ha":314,"x_min":0,"x_max":0,"o":"m 219 242 l 236 972 l 78 972 l 94 242 z m 235 0 l 235 156 l 79 156 l 79 0 z "},"¡":{"ha":314,"x_min":0,"x_max":0,"o":"m 78 972 l 78 817 l 233 817 l 233 972 z m 93 731 l 76 0 l 235 0 l 218 731 z "},"#":{"ha":675,"x_min":0,"x_max":0,"o":"m 544 735 l 569 972 l 444 972 l 419 735 l 307 735 l 332 972 l 207 972 l 182 735 l 90 735 l 76 606 l 168 606 l 143 374 l 51 374 l 39 244 l 131 244 l 104 0 l 229 0 l 256 244 l 368 244 l 342 0 l 467 0 l 493 244 l 585 244 l 597 374 l 506 374 l 531 606 l 622 606 l 636 735 z m 293 606 l 406 606 l 381 374 l 268 374 z "},".":{"ha":314,"x_min":0,"x_max":0,"o":"m 235 0 l 235 156 l 79 156 l 79 0 z "},"?":{"ha":513,"x_min":0,"x_max":0,"o":"m 250 986 b 31 761 114 986 31 904 l 31 742 l 172 728 l 172 750 b 249 850 172 818 197 850 b 322 756 292 850 322 824 l 322 736 b 254 582 322 686 307 650 b 156 288 178 486 156 422 l 156 243 l 289 243 l 289 288 b 381 518 289 379 310 429 b 469 739 450 604 469 660 l 469 761 b 250 986 469 914 386 986 z m 300 0 l 300 156 l 144 156 l 144 0 z "},"¿":{"ha":513,"x_min":0,"x_max":0,"o":"m 213 972 l 213 817 l 368 817 l 368 972 z m 263 -14 b 482 211 399 -14 482 68 l 482 231 l 340 244 l 340 222 b 264 122 340 154 315 122 b 190 217 221 122 190 149 l 190 236 b 258 390 190 286 206 322 b 357 685 335 486 357 550 l 357 729 l 224 729 l 224 685 b 132 454 224 593 203 543 b 43 233 63 368 43 313 l 43 211 b 263 -14 43 58 126 -14 z "},"\"":{"ha":517,"x_min":0,"x_max":0,"o":"m 206 661 l 226 972 l 71 972 l 92 661 z m 428 661 l 449 972 l 293 972 l 314 661 z "},"'":{"ha":294,"x_min":0,"x_max":0,"o":"m 204 661 l 225 972 l 69 972 l 90 661 z "},";":{"ha":314,"x_min":0,"x_max":0,"o":"m 236 556 l 236 711 l 81 711 l 81 556 z m 236 14 l 236 156 l 81 156 l 81 0 l 131 0 l 81 -156 l 157 -156 z "},"/":{"ha":522,"x_min":0,"x_max":0,"o":"m 146 -69 l 496 1042 l 376 1042 l 26 -69 z "},"_":{"ha":611,"x_min":0,"x_max":0,"o":"m 611 -169 l 611 -69 l 0 -69 l 0 -169 z "},"{":{"ha":414,"x_min":0,"x_max":0,"o":"m 360 972 l 317 972 b 121 781 181 972 121 921 l 121 625 b 39 539 121 563 100 539 l 39 433 b 121 347 100 433 121 410 l 121 192 b 317 0 121 51 181 0 l 360 0 l 360 106 b 268 200 290 106 268 131 l 268 361 b 194 485 268 422 244 464 l 194 488 b 268 611 244 508 268 550 l 268 772 b 360 867 268 842 290 867 z "},"}":{"ha":414,"x_min":0,"x_max":0,"o":"m 53 0 l 96 0 b 292 192 232 0 292 51 l 292 347 b 374 433 292 410 313 433 l 374 539 b 292 625 313 539 292 563 l 292 781 b 96 972 292 921 232 972 l 53 972 l 53 867 b 144 772 122 867 144 842 l 144 611 b 218 488 144 550 168 508 l 218 485 b 144 361 168 464 144 422 l 144 200 b 53 106 144 131 122 106 z "},"[":{"ha":414,"x_min":0,"x_max":0,"o":"m 360 867 l 360 972 l 93 972 l 93 0 l 360 0 l 360 106 l 240 106 l 240 867 z "},"]":{"ha":414,"x_min":0,"x_max":0,"o":"m 53 106 l 53 0 l 319 0 l 319 972 l 53 972 l 53 867 l 172 867 l 172 106 z "},"(":{"ha":414,"x_min":0,"x_max":0,"o":"m 235 972 b 72 486 128 849 72 683 b 235 0 72 289 128 124 l 379 0 b 219 486 272 142 219 301 b 379 972 219 671 272 831 z "},")":{"ha":414,"x_min":0,"x_max":0,"o":"m 178 0 b 340 486 285 124 340 289 b 178 972 340 683 285 849 l 33 972 b 193 486 140 831 193 671 b 33 0 193 301 140 142 z "},"—":{"ha":1111,"x_min":0,"x_max":0,"o":"m 1069 429 l 1069 543 l 42 543 l 42 429 z "},"–":{"ha":611,"x_min":0,"x_max":0,"o":"m 569 429 l 569 543 l 42 543 l 42 429 z "},"-":{"ha":407,"x_min":0,"x_max":0,"o":"m 351 414 l 351 556 l 56 556 l 56 414 z "},"­":{"ha":407,"x_min":0,"x_max":0,"o":"m 351 414 l 351 556 l 56 556 l 56 414 z "},"«":{"ha":603,"x_min":0,"x_max":0,"o":"m 47 444 l 275 271 l 275 424 l 189 486 l 275 549 l 275 701 l 47 528 z m 311 444 l 539 271 l 539 424 l 453 486 l 539 549 l 539 701 l 311 528 z "},"»":{"ha":603,"x_min":0,"x_max":0,"o":"m 292 528 l 64 701 l 64 549 l 150 486 l 64 424 l 64 271 l 292 444 z m 556 528 l 328 701 l 328 549 l 414 486 l 328 424 l 328 271 l 556 444 z "},"‹":{"ha":339,"x_min":0,"x_max":0,"o":"m 47 444 l 275 271 l 275 424 l 189 486 l 275 549 l 275 701 l 47 528 z "},"›":{"ha":339,"x_min":0,"x_max":0,"o":"m 290 528 l 63 701 l 63 549 l 149 486 l 63 424 l 63 271 l 290 444 z "},"„":{"ha":517,"x_min":0,"x_max":0,"o":"m 219 14 l 219 156 l 64 156 l 64 0 l 114 0 l 64 -156 l 140 -156 z m 449 14 l 449 156 l 293 156 l 293 0 l 343 0 l 293 -156 l 369 -156 z "},"“":{"ha":517,"x_min":0,"x_max":0,"o":"m 68 803 l 68 661 l 224 661 l 224 817 l 174 817 l 224 972 l 147 972 z m 290 803 l 290 661 l 446 661 l 446 817 l 396 817 l 446 972 l 369 972 z "},"”":{"ha":517,"x_min":0,"x_max":0,"o":"m 226 831 l 226 972 l 71 972 l 71 817 l 121 817 l 71 661 l 147 661 z m 449 831 l 449 972 l 293 972 l 293 817 l 343 817 l 293 661 l 369 661 z "},"‘":{"ha":294,"x_min":0,"x_max":0,"o":"m 68 803 l 68 661 l 224 661 l 224 817 l 174 817 l 224 972 l 147 972 z "},"’":{"ha":294,"x_min":0,"x_max":0,"o":"m 226 831 l 226 972 l 71 972 l 71 817 l 121 817 l 71 661 l 147 661 z "},"‚":{"ha":294,"x_min":0,"x_max":0,"o":"m 226 14 l 226 156 l 71 156 l 71 0 l 121 0 l 71 -156 l 147 -156 z "}," ":{"ha":264,"x_min":0,"x_max":0,"o":""}," ":{"ha":264,"x_min":0,"x_max":0,"o":""},"¢":{"ha":597,"x_min":0,"x_max":0,"o":"m 390 589 l 532 596 l 532 614 b 361 842 532 740 469 821 l 361 929 l 244 929 l 244 842 b 76 614 138 821 76 740 l 76 358 b 244 131 76 232 138 151 l 244 29 l 361 29 l 361 131 b 532 358 469 151 532 232 l 532 406 l 390 413 l 390 374 b 307 261 390 296 361 261 b 224 360 253 261 224 296 l 224 613 b 307 711 224 676 253 711 b 390 599 361 711 390 676 z "},"¤":{"ha":597,"x_min":0,"x_max":0,"o":"m 497 747 l 390 640 b 299 661 364 654 333 661 b 207 640 264 661 233 654 l 100 747 l 19 667 l 126 560 b 107 472 114 535 107 504 b 126 385 107 440 114 410 l 19 278 l 100 197 l 207 304 b 299 283 233 290 264 283 b 390 304 333 283 364 290 l 497 197 l 578 278 l 471 385 b 490 472 483 410 490 440 b 471 560 490 504 483 535 l 578 667 z m 299 549 b 371 472 343 549 371 515 b 299 396 371 429 343 396 b 226 472 254 396 226 429 b 299 549 226 515 254 549 z "},"$":{"ha":597,"x_min":0,"x_max":0,"o":"m 356 1054 l 239 1054 l 239 967 b 78 751 138 947 78 872 l 78 731 b 254 425 78 625 124 546 b 379 239 350 338 379 293 l 379 218 b 299 136 379 163 342 136 b 213 236 240 136 213 168 l 213 294 l 71 281 l 71 225 b 239 6 71 104 136 28 l 239 -96 l 356 -96 l 356 6 b 526 221 460 24 526 99 l 526 244 b 350 550 526 350 481 429 b 225 736 254 638 225 682 l 225 754 b 300 836 225 810 256 836 b 378 736 353 836 378 804 l 378 714 l 519 728 l 519 747 b 356 967 519 869 458 947 z "},"€":{"ha":597,"x_min":0,"x_max":0,"o":"m 313 986 b 86 753 169 986 86 900 l 86 632 l 39 632 l 39 549 l 86 549 l 86 451 l 39 451 l 39 368 l 86 368 l 86 219 b 313 -14 86 72 169 -14 b 542 219 457 -14 542 72 l 542 281 l 400 288 l 400 235 b 317 122 400 157 371 122 b 233 221 263 122 233 157 l 233 368 l 396 368 l 396 451 l 233 451 l 233 549 l 396 549 l 396 632 l 233 632 l 233 751 b 317 850 233 815 263 850 b 400 738 371 850 400 815 l 400 714 l 542 721 l 542 753 b 313 986 542 900 457 986 z "},"ƒ":{"ha":597,"x_min":0,"x_max":0,"o":"m 450 986 b 224 746 297 986 224 901 l 224 638 l 78 638 l 78 515 l 224 515 l 224 231 b 126 122 224 156 194 122 b 54 133 97 122 72 128 l 46 -1 b 144 -14 76 -10 110 -14 b 371 226 297 -14 371 71 l 371 515 l 531 515 l 531 638 l 371 638 l 371 742 b 468 850 371 817 400 850 b 540 839 497 850 522 844 l 549 974 b 450 986 518 982 485 986 z "},"₹":{"ha":597,"x_min":0,"x_max":0,"o":"m 531 857 l 558 972 l 64 972 l 36 857 l 210 857 b 313 749 278 857 310 822 l 64 749 l 36 633 l 313 633 b 210 525 310 560 278 525 l 89 525 l 89 417 l 390 0 l 560 0 l 261 413 b 460 633 383 426 453 503 l 531 633 l 558 749 l 458 749 b 422 857 456 793 444 829 z "},"£":{"ha":597,"x_min":0,"x_max":0,"o":"m 543 140 l 233 140 l 233 143 b 304 367 289 206 304 271 l 304 435 l 515 435 l 515 571 l 304 571 l 304 742 b 403 850 304 817 333 850 b 504 825 435 850 461 843 l 515 958 b 383 986 479 976 435 986 b 157 746 231 986 157 901 l 157 571 l 49 571 l 49 435 l 157 435 l 157 386 b 49 126 157 272 136 199 l 49 1 l 543 1 z "},"¥":{"ha":597,"x_min":0,"x_max":0,"o":"m 383 472 l 572 972 l 419 972 l 304 636 l 301 636 l 181 972 l 25 972 l 217 472 l 78 472 l 78 372 l 226 372 l 226 278 l 78 278 l 78 178 l 226 178 l 226 0 l 374 0 l 374 178 l 522 178 l 522 278 l 374 278 l 374 372 l 522 372 l 522 472 z "},"≈":{"ha":600,"x_min":0,"x_max":0,"o":"m 513 703 b 401 628 464 642 444 628 b 324 658 383 628 363 636 b 203 699 274 688 240 699 b 11 581 132 699 79 675 l 88 506 b 199 581 136 567 156 581 b 276 550 217 581 238 572 b 397 510 326 521 360 510 b 589 628 468 510 521 533 z m 513 467 b 401 392 464 406 444 392 b 324 422 383 392 363 400 b 203 463 274 451 240 463 b 11 344 132 463 79 439 l 88 269 b 199 344 136 331 156 344 b 276 314 217 344 238 336 b 397 274 326 285 360 274 b 589 392 468 274 521 297 z "},"~":{"ha":600,"x_min":0,"x_max":0,"o":"m 513 585 b 401 510 464 524 444 510 b 324 540 383 510 363 518 b 203 581 274 569 240 581 b 11 463 132 581 79 557 l 88 388 b 199 463 136 449 156 463 b 276 432 217 463 238 454 b 397 392 326 403 360 392 b 589 510 468 392 521 415 z "},"∙":{"ha":314,"x_min":0,"x_max":0,"o":"m 235 408 l 235 564 l 79 564 l 79 408 z "},"÷":{"ha":597,"x_min":0,"x_max":0,"o":"m 369 640 l 369 782 l 228 782 l 228 640 z m 569 429 l 569 543 l 28 543 l 28 429 z m 369 190 l 369 332 l 228 332 l 228 190 z "},"=":{"ha":597,"x_min":0,"x_max":0,"o":"m 569 547 l 569 661 l 28 661 l 28 547 z m 569 311 l 569 425 l 28 425 l 28 311 z "},">":{"ha":597,"x_min":0,"x_max":0,"o":"m 569 539 l 28 765 l 28 639 l 404 485 l 28 333 l 28 207 l 569 431 z "},"≥":{"ha":597,"x_min":0,"x_max":0,"o":"m 569 539 l 28 765 l 28 639 l 404 485 l 28 333 l 28 207 l 569 431 z m 569 0 l 569 114 l 28 114 l 28 0 z "},"∞":{"ha":890,"x_min":0,"x_max":0,"o":"m 678 707 l 678 868 l 460 868 l 460 707 l 397 707 b 43 393 165 707 43 576 b 354 83 43 206 171 83 b 678 436 549 83 678 219 l 678 500 l 861 500 l 861 707 z m 460 500 l 460 432 b 358 299 460 344 419 299 b 268 393 303 299 268 335 b 396 500 268 457 313 500 z "},"<":{"ha":597,"x_min":0,"x_max":0,"o":"m 569 639 l 569 765 l 28 539 l 28 431 l 569 207 l 569 333 l 193 485 z "},"≤":{"ha":597,"x_min":0,"x_max":0,"o":"m 569 639 l 569 765 l 28 539 l 28 431 l 569 207 l 569 333 l 193 485 z m 569 0 l 569 114 l 28 114 l 28 0 z "},"¬":{"ha":597,"x_min":0,"x_max":0,"o":"m 569 199 l 569 543 l 28 543 l 28 429 l 456 429 l 456 199 z "},"µ":{"ha":611,"x_min":0,"x_max":0,"o":"m 532 0 l 532 572 l 385 572 l 385 218 b 306 122 385 149 354 122 b 226 218 257 122 226 149 l 226 572 l 79 572 l 79 -171 l 226 -171 l 226 -11 b 260 -14 236 -14 247 -14 b 397 67 321 -14 369 14 l 400 67 l 421 0 z "},"−":{"ha":597,"x_min":0,"x_max":0,"o":"m 569 429 l 569 543 l 28 543 l 28 429 z "},"×":{"ha":597,"x_min":0,"x_max":0,"o":"m 560 669 l 479 750 l 299 567 l 118 750 l 38 669 l 218 486 l 38 303 l 118 222 l 299 406 l 479 222 l 560 303 l 379 486 z "},"≠":{"ha":597,"x_min":0,"x_max":0,"o":"m 479 661 l 572 800 l 446 800 l 353 661 l 28 661 l 28 547 l 276 547 l 194 425 l 28 425 l 28 311 l 118 311 l 25 172 l 151 172 l 244 311 l 569 311 l 569 425 l 321 425 l 403 547 l 569 547 l 569 661 z "},"%":{"ha":806,"x_min":0,"x_max":0,"o":"m 189 986 b 40 833 97 986 40 928 l 40 622 b 189 469 40 528 97 469 b 338 622 281 469 338 528 l 338 833 b 189 986 338 928 281 986 z m 218 -14 l 679 986 l 588 986 l 126 -14 z m 189 896 b 238 833 221 896 238 875 l 238 622 b 189 560 238 581 221 560 b 140 622 157 560 140 581 l 140 833 b 189 896 140 875 157 896 z m 617 503 b 468 350 525 503 468 444 l 468 139 b 617 -14 468 44 525 -14 b 765 139 708 -14 765 44 l 765 350 b 617 503 765 444 708 503 z m 617 413 b 665 350 649 413 665 392 l 665 139 b 617 76 665 97 649 76 b 568 139 585 76 568 97 l 568 350 b 617 413 568 392 585 413 z "},"‰":{"ha":1165,"x_min":0,"x_max":0,"o":"m 189 986 b 40 833 97 986 40 928 l 40 622 b 189 469 40 528 97 469 b 338 622 281 469 338 528 l 338 833 b 189 986 338 928 281 986 z m 218 -14 l 679 986 l 588 986 l 126 -14 z m 189 896 b 238 833 221 896 238 875 l 238 622 b 189 560 238 581 221 560 b 140 622 157 560 140 581 l 140 833 b 189 896 140 875 157 896 z m 617 503 b 468 350 525 503 468 444 l 468 139 b 617 -14 468 44 525 -14 b 765 139 708 -14 765 44 l 765 350 b 617 503 765 444 708 503 z m 976 503 b 828 350 885 503 828 444 l 828 139 b 976 -14 828 44 885 -14 b 1125 139 1068 -14 1125 44 l 1125 350 b 976 503 1125 444 1068 503 z m 617 413 b 665 350 649 413 665 392 l 665 139 b 617 76 665 97 649 76 b 568 139 585 76 568 97 l 568 350 b 617 413 568 392 585 413 z m 976 413 b 1025 350 1008 413 1025 392 l 1025 139 b 976 76 1025 97 1008 76 b 928 139 944 76 928 97 l 928 350 b 976 413 928 392 944 413 z "},"+":{"ha":597,"x_min":0,"x_max":0,"o":"m 356 543 l 356 774 l 242 774 l 242 543 l 28 543 l 28 429 l 242 429 l 242 199 l 356 199 l 356 429 l 569 429 l 569 543 z "},"±":{"ha":597,"x_min":0,"x_max":0,"o":"m 356 543 l 356 774 l 242 774 l 242 543 l 28 543 l 28 429 l 242 429 l 242 199 l 356 199 l 356 429 l 569 429 l 569 543 z m 569 0 l 569 114 l 28 114 l 28 0 z "},"|":{"ha":326,"x_min":0,"x_max":0,"o":"m 219 -208 l 219 1181 l 107 1181 l 107 -208 z "},"¦":{"ha":326,"x_min":0,"x_max":0,"o":"m 219 625 l 219 1181 l 107 1181 l 107 625 z m 219 -208 l 219 347 l 107 347 l 107 -208 z "},"@":{"ha":1025,"x_min":0,"x_max":0,"o":"m 525 986 b 43 472 236 986 43 781 b 540 -14 43 186 246 -14 b 813 61 646 -14 740 11 l 767 168 b 543 106 704 126 626 106 b 174 472 319 106 174 253 b 526 867 174 713 311 867 b 864 519 725 867 864 738 b 772 346 864 415 833 346 b 718 422 735 346 718 371 l 718 725 l 617 725 l 610 667 l 607 667 b 472 742 575 717 531 742 b 311 554 368 742 311 678 l 311 417 b 472 231 311 294 368 231 b 618 314 538 231 585 257 l 621 314 b 760 231 643 257 689 231 b 986 532 906 231 986 350 b 525 986 986 807 793 986 z m 504 625 b 588 557 542 625 568 604 l 588 415 b 504 347 568 368 542 347 b 442 431 461 347 442 374 l 442 540 b 504 625 442 597 461 625 z "},"&":{"ha":665,"x_min":0,"x_max":0,"o":"m 281 986 b 74 771 146 986 74 911 l 74 763 b 161 511 74 686 94 622 b 54 258 82 421 54 346 l 54 224 b 296 -14 54 69 149 -14 b 463 44 365 -14 421 4 l 490 0 l 665 0 l 546 179 b 568 324 563 219 568 268 l 568 483 l 440 490 l 440 347 l 438 347 l 338 503 b 488 768 451 617 488 676 l 488 775 b 281 986 488 907 415 986 z m 282 850 b 349 771 325 850 349 821 l 349 764 b 267 614 349 718 329 683 l 264 614 b 215 761 228 683 215 722 l 215 768 b 282 850 215 822 240 850 z m 242 390 l 389 157 b 303 122 367 133 338 122 b 201 238 243 122 201 157 l 201 260 b 239 390 201 303 211 339 z "},"¶":{"ha":696,"x_min":0,"x_max":0,"o":"m 603 -139 l 603 972 l 268 972 b 46 749 124 972 46 894 l 46 690 b 268 467 46 546 124 467 l 272 467 l 272 -139 l 389 -139 l 389 849 l 486 849 l 486 -139 z "},"©":{"ha":1031,"x_min":0,"x_max":0,"o":"m 515 986 b 43 486 232 986 43 786 b 515 -14 43 186 232 -14 b 988 486 799 -14 988 186 b 515 986 988 786 799 986 z m 515 883 b 874 486 733 883 874 728 b 515 89 874 244 733 89 b 157 486 297 89 157 244 b 515 883 157 728 297 883 z m 514 790 b 357 629 415 790 357 731 l 357 343 b 514 182 357 242 415 182 b 674 343 614 182 674 242 l 674 408 l 563 413 l 563 350 b 518 288 563 307 549 288 b 475 340 489 288 475 304 l 475 632 b 518 685 475 668 489 685 b 563 622 549 685 563 665 l 563 576 l 674 582 l 674 629 b 514 790 674 731 614 790 z "},"®":{"ha":1031,"x_min":0,"x_max":0,"o":"m 515 986 b 43 486 232 986 43 786 b 515 -14 43 186 232 -14 b 988 486 799 -14 988 186 b 515 986 988 786 799 986 z m 515 883 b 874 486 733 883 874 728 b 515 89 874 244 733 89 b 157 486 297 89 157 244 b 515 883 157 728 297 883 z m 361 782 l 361 190 l 479 190 l 479 428 l 510 428 l 588 190 l 713 190 l 618 450 b 689 590 665 475 689 522 l 689 619 b 518 782 689 726 631 782 z m 479 676 l 515 676 b 569 611 553 676 569 657 l 569 600 b 515 533 569 553 553 533 l 479 533 z "},"℗":{"ha":1031,"x_min":0,"x_max":0,"o":"m 515 986 b 43 486 232 986 43 786 b 515 -14 43 186 232 -14 b 988 486 799 -14 988 186 b 515 986 988 786 799 986 z m 515 883 b 874 486 733 883 874 728 b 515 89 874 244 733 89 b 157 486 297 89 157 244 b 515 883 157 728 297 883 z m 375 782 l 375 190 l 494 190 l 494 422 l 532 422 b 704 588 646 422 704 478 l 704 617 b 532 782 704 726 646 782 z m 494 676 l 529 676 b 583 611 567 676 583 657 l 583 594 b 529 528 583 547 567 528 l 494 528 z "},"§":{"ha":564,"x_min":0,"x_max":0,"o":"m 272 986 b 53 790 136 986 53 913 l 53 765 b 140 596 53 692 76 642 l 140 593 b 43 426 79 556 43 499 l 43 406 b 243 175 43 299 93 240 b 372 60 344 131 372 106 l 372 47 b 285 -25 372 3 339 -25 b 189 71 225 -25 189 10 l 189 92 l 56 78 l 56 68 b 292 -153 56 -69 146 -153 b 511 43 428 -153 511 -79 l 511 68 b 424 238 511 142 488 192 l 424 240 b 521 407 485 278 521 335 l 521 428 b 321 658 521 535 471 593 b 192 774 219 703 192 728 l 192 786 b 279 858 192 831 225 858 b 375 763 339 858 375 824 l 375 742 l 508 756 l 508 765 b 272 986 508 903 418 986 z m 257 533 b 382 419 356 490 382 465 l 382 393 b 307 300 382 353 353 317 b 182 414 208 343 182 368 l 182 440 b 257 533 182 481 211 517 z "},"™":{"ha":786,"x_min":0,"x_max":0,"o":"m 293 881 l 293 972 l 13 972 l 13 881 l 103 881 l 103 436 l 201 436 l 201 881 z m 707 436 l 707 972 l 578 972 l 521 726 l 518 726 l 460 972 l 333 972 l 333 436 l 428 436 l 428 764 l 431 764 l 490 514 l 546 514 l 606 764 l 608 764 l 608 436 z "},"°":{"ha":386,"x_min":0,"x_max":0,"o":"m 193 986 b 40 833 104 986 40 922 b 193 681 40 744 104 681 b 346 833 282 681 346 744 b 193 986 346 922 282 986 z m 193 894 b 250 833 228 894 250 871 b 193 772 250 796 228 772 b 136 833 158 772 136 796 b 193 894 136 871 158 894 z "},"^":{"ha":597,"x_min":0,"x_max":0,"o":"m 574 576 l 354 972 l 246 972 l 25 576 l 161 576 l 300 829 l 438 576 z "},"†":{"ha":586,"x_min":0,"x_max":0,"o":"m 363 972 l 224 972 l 224 706 l 32 715 l 32 576 l 224 586 l 224 -139 l 363 -139 l 363 586 l 554 576 l 554 715 l 363 706 z "},"‡":{"ha":586,"x_min":0,"x_max":0,"o":"m 363 972 l 224 972 l 224 706 l 32 715 l 32 576 l 224 586 l 224 247 l 32 257 l 32 118 l 224 128 l 224 -139 l 363 -139 l 363 128 l 554 118 l 554 257 l 363 247 l 363 586 l 554 576 l 554 715 l 363 706 z "},"´":{"ha":347,"x_min":0,"x_max":0,"o":"m 211 1028 l 332 1181 l 183 1181 l 103 1028 z "},"˘":{"ha":347,"x_min":0,"x_max":0,"o":"m 239 1181 b 174 1124 239 1146 214 1124 b 108 1181 133 1124 108 1146 l 14 1181 b 174 1021 14 1079 72 1021 b 333 1181 275 1021 333 1079 z "},"ˇ":{"ha":347,"x_min":0,"x_max":0,"o":"m 249 1028 l 343 1181 l 235 1181 l 174 1103 l 113 1181 l 4 1181 l 99 1028 z "},"¸":{"ha":347,"x_min":0,"x_max":0,"o":"m 208 19 l 142 19 l 142 -74 l 156 -74 b 204 -115 192 -74 204 -85 b 172 -149 204 -137 193 -149 b 140 -115 151 -149 140 -137 l 140 -104 l 38 -110 l 38 -118 b 171 -204 38 -175 83 -204 b 311 -122 267 -204 311 -178 b 208 -49 311 -72 278 -49 z "},"ˆ":{"ha":347,"x_min":0,"x_max":0,"o":"m 343 1028 l 249 1181 l 99 1181 l 4 1028 l 113 1028 l 174 1106 l 235 1028 z "},"¨":{"ha":347,"x_min":0,"x_max":0,"o":"m 138 1038 l 138 1171 l 7 1171 l 7 1038 z m 340 1038 l 340 1171 l 210 1171 l 210 1038 z "},"˙":{"ha":347,"x_min":0,"x_max":0,"o":"m 244 1032 l 244 1176 l 103 1176 l 103 1032 z "},"`":{"ha":347,"x_min":0,"x_max":0,"o":"m 244 1028 l 164 1181 l 15 1181 l 136 1028 z "},"˝":{"ha":347,"x_min":0,"x_max":0,"o":"m 108 1028 l 229 1181 l 92 1181 l 11 1028 z m 303 1028 l 424 1181 l 286 1181 l 206 1028 z "},"¯":{"ha":347,"x_min":0,"x_max":0,"o":"m 307 1060 l 307 1149 l 40 1149 l 40 1060 z "},"˛":{"ha":347,"x_min":0,"x_max":0,"o":"m 171 6 b 65 -119 97 -29 65 -72 b 186 -204 65 -175 108 -204 b 281 -182 221 -204 249 -199 l 274 -97 b 224 -112 260 -107 242 -112 b 179 -74 197 -112 179 -100 b 231 6 179 -53 190 -25 z "},"˚":{"ha":347,"x_min":0,"x_max":0,"o":"m 174 1226 b 68 1119 113 1226 68 1182 b 174 1014 68 1058 113 1014 b 279 1119 235 1014 279 1058 b 174 1226 279 1182 235 1226 z m 174 1163 b 213 1119 197 1163 213 1146 b 174 1078 213 1094 197 1078 b 135 1119 150 1078 135 1094 b 174 1163 135 1146 150 1163 z "},"˜":{"ha":347,"x_min":0,"x_max":0,"o":"m 114 1172 b 6 1090 71 1172 40 1150 l 61 1039 b 117 1078 81 1067 96 1078 b 168 1058 129 1078 140 1074 b 233 1036 197 1042 213 1036 b 342 1118 276 1036 307 1058 l 286 1169 b 231 1131 267 1142 251 1131 b 179 1150 218 1131 207 1135 b 114 1172 150 1167 135 1172 z "},"̦":{"ha":0,"x_min":0,"x_max":0,"o":"m 244 -171 l 244 -56 l 103 -56 l 103 -183 l 149 -183 l 103 -283 l 172 -283 z "}}}
